<svg width="645" height="648" viewBox="0 0 645 648" fill="none" xmlns="http://www.w3.org/2000/svg">
<path d="M588.229 178.546C588.229 178.546 477.569 19.2172 339.409 2.27408C217.448 -12.6045 104.311 45.7124 88.4823 171.747C82.8667 216.644 72.8743 266.317 55.1191 307.292C35.2029 353.249 1.22031 391.485 27.2338 479.875C53.2472 568.266 163.178 647.958 243.077 647.793C322.975 647.628 398.042 574.845 459.965 508.779C521.888 442.713 719.081 380.777 588.229 178.546Z" fill="#FFB5A7"/>
<path opacity="0.7" d="M588.229 178.546C588.229 178.546 477.569 19.2172 339.409 2.27408C217.448 -12.6045 104.311 45.7124 88.4823 171.747C82.8667 216.644 72.8743 266.317 55.1191 307.292C35.2029 353.249 1.22031 391.485 27.2338 479.875C53.2472 568.266 163.178 647.958 243.077 647.793C322.975 647.628 398.042 574.845 459.965 508.779C521.888 442.713 719.081 380.777 588.229 178.546Z" fill="white"/>
<g opacity="0.3">
<path d="M321.626 56.8336H85.0689V355.176H321.626V56.8336Z" stroke="black" stroke-miterlimit="10"/>
<path d="M85.0414 292.235C105.584 267.713 129.285 246.02 155.525 227.724C211.957 188.112 276.178 168.65 321.599 139.196" stroke="black" stroke-miterlimit="10"/>
<path d="M85.0414 217.346C120.166 197.499 162.517 170.123 196.087 137.943C233.442 102.158 243.407 74.6301 244.522 56.8336" stroke="black" stroke-miterlimit="10"/>
<path d="M146.978 355.176C170.376 302.998 214.82 212.804 226.064 252.843C234.667 283.536 221.935 324.731 209.025 355.176" stroke="black" stroke-miterlimit="10"/>
<path d="M144.68 56.8336C125.851 77.2039 106.884 104.594 125.617 117.656C150.832 135.232 183.892 95.9777 200.918 56.8336" stroke="black" stroke-miterlimit="10"/>
<path d="M270.934 137.929C287.734 137.929 301.352 124.311 301.352 107.512C301.352 90.7123 287.734 77.0938 270.934 77.0938C254.135 77.0938 240.516 90.7123 240.516 107.512C240.516 124.311 254.135 137.929 270.934 137.929Z" stroke="black" stroke-miterlimit="10"/>
<path d="M118.377 173.646C127.172 173.646 134.302 166.517 134.302 157.722C134.302 148.927 127.172 141.797 118.377 141.797C109.582 141.797 102.452 148.927 102.452 157.722C102.452 166.517 109.582 173.646 118.377 173.646Z" stroke="black" stroke-miterlimit="10"/>
<path d="M140.365 320.581C153.695 317.494 161.998 304.185 158.911 290.855C155.824 277.525 142.515 269.222 129.185 272.309C115.855 275.396 107.552 288.705 110.639 302.035C113.727 315.365 127.035 323.668 140.365 320.581Z" stroke="black" stroke-miterlimit="10"/>
</g>
<path d="M125.975 572.739C117.716 433.726 171.01 337.586 171.546 336.622L174.506 338.384C173.969 339.334 121.171 434.661 129.347 572.67L125.975 572.739Z" fill="#9E9E9E"/>
<path d="M124.86 561.398C118.707 457.578 135.554 320.354 135.719 318.977L139.105 319.528C138.926 320.904 122.121 457.826 128.259 561.343L124.86 561.398Z" fill="#9E9E9E"/>
<path d="M118.267 558.246C112.335 503.274 113.436 464.887 115.418 442.369C117.565 417.856 121.075 406.583 121.226 406.074L124.474 407.217C124.337 407.671 110.38 453.545 121.653 558.026L118.267 558.246Z" fill="#9E9E9E"/>
<path d="M130.902 531.187L127.516 530.705C136.628 441.461 128.025 398.298 127.929 397.871L131.26 397.307C131.356 397.733 140.096 441.337 130.902 531.187Z" fill="#9E9E9E"/>
<path d="M135.045 553.126L131.645 552.796C134.976 494.382 123.015 463.194 122.892 462.891L126.043 461.762C126.553 463.042 138.417 493.873 135.045 553.126Z" fill="#9E9E9E"/>
<path d="M136.091 334.462C127.371 318.941 121.221 302.11 117.882 284.623C112.858 256.779 122.96 234.771 136.008 221.172C149.056 207.574 170.019 197.87 182.516 186.873C195.013 175.876 214.42 160.323 214.42 160.323C214.42 160.323 206.947 199.164 207.098 234.771C207.249 270.378 186.728 291.092 171.643 302.103C156.558 313.114 136.091 334.462 136.091 334.462Z" fill="#FFB5A7"/>
<path d="M171.23 340.738C171.23 340.738 162.545 302.323 188.627 295.441C214.709 288.56 221.261 302.144 227.73 303.08C234.199 304.016 243.999 305.09 251.128 312.715C258.258 320.34 257.157 325.419 262.208 329.961C267.259 334.503 272.09 337.022 274.196 346.12C276.302 355.217 279.702 364.646 275.848 370.302C275.848 370.302 265.071 341.894 240.186 336.444C215.301 330.993 176.322 338.701 171.23 340.738Z" fill="#FFB5A7"/>
<path d="M127.626 381.079C127.626 381.079 123.621 346.119 116.409 327.993C109.197 309.866 86.5003 293.033 71.3464 286.564C56.1926 280.095 45.0302 276.172 41.5479 270.378C38.0657 264.583 30.6884 258.073 33.2897 272.965C35.8911 287.858 38.7952 311.806 46.2964 322.171L53.839 332.521C53.839 332.521 81.0223 332.521 96.5065 348.06C111.991 363.599 128.645 390.136 128.645 390.136L127.626 381.079Z" fill="#FFB5A7"/>
<path d="M128.645 390.136C128.645 390.136 99.5758 359.718 85.5506 349.354C71.5254 338.99 53.3572 337.71 42.9518 336.416C32.5465 335.122 21.4942 318.289 21.4942 318.289C21.4942 318.289 29.546 357.13 40.7634 377.845C51.9809 398.559 81.0774 397.912 96.6166 397.912C112.156 397.912 128.645 390.136 128.645 390.136Z" fill="#FFB5A7"/>
<path d="M119.244 413.452C119.244 413.452 120.621 397.912 128.645 390.136C136.669 382.359 151.066 384.314 160.301 387.548C169.537 390.783 173.762 384.314 180.947 386.254C188.132 388.195 198.84 395.325 205.529 401.794C212.218 408.263 221.44 427.036 221.578 430.285C221.715 433.533 206.809 417.333 195.619 412.805C184.429 408.276 163.646 406.928 149.401 406.928C135.155 406.928 119.244 413.452 119.244 413.452Z" fill="#FFB5A7"/>
<path d="M126.14 455.527C126.14 455.527 122.314 441.337 110.477 436.754C98.6399 432.17 81.8895 434.166 76.7831 434.166C71.6768 434.166 62.2762 427.683 51.6643 437.401C45.3791 443.072 40.558 450.179 37.6116 458.115C45.8325 451.174 56.198 447.285 66.9558 447.104C84.422 447.104 91.4966 445.81 100.856 452.94C110.215 460.069 129.361 471.067 129.361 471.067L126.14 455.527Z" fill="#FFB5A7"/>
<path d="M131.342 503.755C131.342 503.755 133.875 470.722 139.325 461.68C144.776 452.637 164.224 437.07 173.735 431.248C183.245 425.426 197.243 420.237 197.243 420.237C194.645 432.935 190.109 445.158 183.796 456.477C173.528 474.604 148.162 487.555 145.258 494.685C143.572 498.661 142.227 502.773 141.239 506.976C141.239 506.976 140.275 499.213 157.645 496.626C175.015 494.038 190.086 498.566 196.183 505.035C202.281 511.504 210.332 518.634 212.273 518.634C214.214 518.634 226.863 527.044 226.863 527.044C226.863 527.044 217.311 530.925 202.9 527.044C188.489 523.162 175.964 517.409 166.908 517.409C157.851 517.409 139.848 520.643 139.848 520.643C139.848 520.643 168.518 525.172 173.157 527.759C177.795 530.347 194.284 538.123 194.284 538.123C194.284 538.123 173.638 539.417 162.834 544.592C152.029 549.767 147.171 557.544 146.661 560.778C146.152 564.013 145.712 569.202 145.712 569.202L146.097 578.905H103.43C103.43 578.905 103.719 554.309 91.0423 543.945C78.3659 533.581 58.2295 532.934 58.2295 532.934L44.8099 537.463C44.8099 537.463 47.7691 530.333 59.8261 524.511C71.8832 518.689 80.8158 515.455 87.9454 515.455C91.8838 515.397 95.814 515.831 99.6446 516.748C99.6446 516.748 86.8168 503.797 73.1907 503.15C59.5646 502.503 41.5066 507.637 39.621 508.93C37.7354 510.224 73.0806 488.216 84.766 488.863C92.0634 489.394 99.0885 491.854 105.123 495.993L98.805 484.335C98.805 484.335 104.31 477.866 117.854 490.804L131.342 503.755Z" fill="#FFB5A7"/>
<g opacity="0.2">
<path d="M185.984 205.977C190.114 199.728 193.1 195.751 193.1 195.751" stroke="black" stroke-miterlimit="10"/>
<path d="M139.105 319.528C139.105 319.528 153.571 278.732 161.375 253.365C165.504 239.781 174.354 224.228 181.621 212.721" stroke="black" stroke-miterlimit="10"/>
<path d="M174.065 285.573C174.065 285.573 164.307 292.881 152.043 302.089C139.78 311.297 141.789 308.434 141.789 308.434L130.572 288.917" stroke="black" stroke-miterlimit="10"/>
<path d="M142.849 262.629C145.781 270.447 150.653 286.027 150.653 286.027L181.869 266.538" stroke="black" stroke-miterlimit="10"/>
<path d="M182.599 240.882L194.559 233.849" stroke="black" stroke-miterlimit="10"/>
<path d="M154.066 223.595L161.375 253.366L176.639 244.392" stroke="black" stroke-miterlimit="10"/>
<path d="M242.086 318.95C243.794 319.596 245.381 320.527 246.779 321.703C252.629 326.589 249.711 327.07 258.492 332.934C267.273 338.797 278.945 360.64 275.793 370.454" stroke="black" stroke-miterlimit="10"/>
<path d="M224.812 307.044C224.893 308.714 225.381 310.339 226.233 311.778C227.084 313.217 228.274 314.427 229.698 315.302C231.473 316.283 233.406 316.944 235.41 317.257" stroke="black" stroke-miterlimit="10"/>
<path d="M61.643 303.7C55.6833 298.029 52.1323 294.34 52.1323 294.34" stroke="black" stroke-miterlimit="10"/>
<path d="M107.82 352.464C102.315 343.89 93.7401 331.819 83.3072 323.148C77.1135 317.959 71.4841 312.935 66.7907 308.586" stroke="black" stroke-miterlimit="10"/>
<path d="M114.042 363.159C114.042 363.159 112.899 360.902 110.793 357.337" stroke="black" stroke-miterlimit="10"/>
<path d="M95.5018 334.861L76.4666 302.158" stroke="black" stroke-miterlimit="10"/>
<path d="M73.5486 315.825L56.9496 310.939" stroke="black" stroke-miterlimit="10"/>
<path d="M78.5861 377.157C75.3411 375.983 72.1894 374.566 69.1579 372.918C57.445 366.036 43.2821 356.332 38.8777 350.469" stroke="black" stroke-miterlimit="10"/>
<path d="M121.859 390.48C121.859 390.48 101.214 385.057 84.9725 379.469" stroke="black" stroke-miterlimit="10"/>
<path d="M47.191 372.436L69.1442 372.917L58.904 357.791" stroke="black" stroke-miterlimit="10"/>
<path d="M74.0303 384.63L97.4562 383.171L84.766 365.595" stroke="black" stroke-miterlimit="10"/>
<path d="M176.088 395.339C177.258 395.93 178.676 396.591 180.41 397.32C189.687 401.216 190.169 397.802 198.95 403.666C207.731 409.529 209.686 415.365 214.09 420.251" stroke="black" stroke-miterlimit="10"/>
<path d="M170.652 391.457C170.652 391.457 170.872 392.352 173.9 394.141" stroke="black" stroke-miterlimit="10"/>
<path d="M170.666 448.136C173.164 445.369 175.442 442.41 177.479 439.286" stroke="black" stroke-miterlimit="10"/>
<path d="M135.967 488.574C135.967 488.574 149.731 467.584 160.893 457.853C162.063 456.835 163.178 455.816 164.224 454.825" stroke="black" stroke-miterlimit="10"/>
</g>
<path d="M644 578.85H1" stroke="#263238" stroke-linecap="round" stroke-linejoin="round"/>
<path d="M598.993 367.233H440.38C438.592 367.173 436.838 367.728 435.411 368.805C433.983 369.882 432.968 371.416 432.534 373.151L389.22 578.85H564.157L606.824 375.904C607.788 371.404 604.017 367.233 598.993 367.233Z" fill="#949494" stroke="#263238" stroke-linecap="round" stroke-linejoin="round"/>
<path d="M400.96 226.375C400.96 226.375 380.535 240.139 381.691 250.503C382.847 260.867 393.941 269.442 393.941 269.442C393.941 269.442 409.163 232.693 410.278 232.28C411.393 231.867 400.96 226.375 400.96 226.375Z" fill="#263238" stroke="#263238" stroke-linecap="round" stroke-linejoin="round"/>
<path d="M391.587 313.513C391.587 313.513 395.111 329.644 392.592 337.71L390.073 345.775C390.073 345.775 413.251 352.822 420.821 348.79C428.391 344.757 429.382 342.238 429.382 342.238C429.382 342.238 400.148 309.48 391.587 313.513Z" fill="#263238" stroke="#263238" stroke-linecap="round" stroke-linejoin="round"/>
<path d="M387.706 392.641C387.706 392.641 427.703 389.888 447.702 392.641C467.701 395.394 470.109 395.917 470.109 395.917C470.109 395.917 452.505 457.11 441.302 481.114C430.098 505.118 404.511 525.502 404.511 525.502C404.511 525.502 364.899 457.441 387.706 392.641Z" fill="#263238" stroke="#263238" stroke-linecap="round" stroke-linejoin="round"/>
<path d="M405.406 229.719C405.406 229.719 393.156 256.449 392.041 262.381C390.926 268.313 391.67 279.833 391.67 284.293C391.67 288.752 387.967 304.704 387.967 308.792C387.967 312.88 403.548 345.17 407.636 346.642C411.723 348.115 416.912 345.913 416.912 345.913C416.912 345.913 418.771 359.677 418.399 362.691C418.027 365.705 408.764 369.752 408.764 369.752C408.764 369.752 396.515 393.879 399.13 402.413C401.745 410.946 411.379 419.122 428.818 416.892C446.257 414.663 454.432 409.088 459.263 394.623C464.094 380.157 467.797 365.719 467.797 365.719C467.797 365.719 462.291 366.38 462.291 360.062C462.291 353.744 462.663 323.684 462.663 323.684C462.663 323.684 467.852 271.726 451.886 250.558C435.92 229.389 410.98 219.741 405.406 229.719Z" fill="white" stroke="#263238" stroke-linecap="round" stroke-linejoin="round"/>
<path d="M398.359 225.632C398.359 225.632 429.905 257.935 440.669 276.489C451.432 295.042 441.783 347.386 445.871 347.386C449.959 347.386 463.764 346.987 495.737 331.764C527.71 316.541 526.926 286.853 519.136 265.326C511.345 243.8 492.283 218.53 475.216 210.051C458.149 201.573 410.98 198.173 398.359 225.632Z" fill="#263238" stroke="#263238" stroke-linecap="round" stroke-linejoin="round"/>
<path d="M449.381 286.344C455.299 298.442 466.875 324.524 464.879 339.733" stroke="#B2B2B2" stroke-linecap="round" stroke-linejoin="round"/>
<path d="M446.064 279.833C446.064 279.833 446.559 280.756 447.44 282.38" stroke="#B2B2B2" stroke-linecap="round" stroke-linejoin="round"/>
<path d="M499.522 313.444C500.401 317.024 500.569 320.742 500.018 324.386" stroke="#B2B2B2" stroke-linecap="round" stroke-linejoin="round"/>
<path d="M411.902 226.87C411.902 226.87 405.021 230.821 455.946 264.487C482.29 281.87 493.177 296.749 497.54 307.347" stroke="#B2B2B2" stroke-linecap="round" stroke-linejoin="round"/>
<path d="M418.77 285.807C420.673 287.364 422.987 288.333 425.431 288.597C427.875 288.861 430.343 288.408 432.534 287.293" stroke="#263238" stroke-linecap="round" stroke-linejoin="round"/>
<path d="M394.643 285.022C394.643 285.022 397.616 288.739 402.805 285.394" stroke="#263238" stroke-linecap="round" stroke-linejoin="round"/>
<path d="M402.075 271.671C402.075 271.671 405.778 280.577 405.778 284.664C405.768 287.133 405.128 289.559 403.919 291.711" stroke="#263238" stroke-linecap="round" stroke-linejoin="round"/>
<path d="M399.845 309.522C401.615 310.97 403.622 312.102 405.777 312.866" stroke="#263238" stroke-linecap="round" stroke-linejoin="round"/>
<path d="M403.548 318.84C403.548 318.84 415.797 324.345 424.345 317.725" stroke="#263238" stroke-linecap="round" stroke-linejoin="round"/>
<path d="M414.325 271.671C414.325 271.671 429.905 266.84 435.851 276.117" stroke="#263238" stroke-linecap="round" stroke-linejoin="round"/>
<path d="M393.899 269.442C393.899 269.442 397.616 266.469 399.845 269.07" stroke="#263238" stroke-linecap="round" stroke-linejoin="round"/>
<path d="M416.912 345.913L434.365 342.197L418.027 356.676L416.912 345.913Z" fill="#263238" stroke="#263238" stroke-linecap="round" stroke-linejoin="round"/>
<path d="M418.22 364.742C418.22 365.286 418.059 365.818 417.756 366.271C417.454 366.724 417.024 367.077 416.521 367.285C416.018 367.493 415.464 367.548 414.93 367.442C414.396 367.335 413.906 367.073 413.521 366.688C413.136 366.303 412.874 365.813 412.767 365.279C412.661 364.745 412.716 364.191 412.924 363.688C413.132 363.185 413.485 362.755 413.938 362.453C414.391 362.15 414.923 361.989 415.467 361.989C416.197 361.989 416.897 362.279 417.414 362.795C417.93 363.312 418.22 364.012 418.22 364.742Z" fill="white" stroke="#263238" stroke-linecap="round" stroke-linejoin="round"/>
<path d="M417.477 369.38C417.477 369.925 417.315 370.457 417.013 370.91C416.71 371.362 416.28 371.715 415.777 371.923C415.274 372.132 414.721 372.186 414.187 372.08C413.653 371.974 413.162 371.712 412.777 371.327C412.392 370.942 412.13 370.451 412.024 369.917C411.918 369.383 411.972 368.83 412.181 368.327C412.389 367.824 412.742 367.394 413.195 367.091C413.647 366.789 414.18 366.627 414.724 366.627C415.454 366.627 416.154 366.917 416.67 367.434C417.187 367.95 417.477 368.65 417.477 369.38Z" fill="white" stroke="#263238" stroke-linecap="round" stroke-linejoin="round"/>
<path d="M416.747 374.018C416.747 374.563 416.586 375.095 416.283 375.548C415.981 376.001 415.551 376.353 415.048 376.562C414.545 376.77 413.991 376.825 413.457 376.718C412.923 376.612 412.433 376.35 412.048 375.965C411.663 375.58 411.401 375.09 411.295 374.556C411.188 374.022 411.243 373.468 411.451 372.965C411.66 372.462 412.012 372.032 412.465 371.73C412.918 371.427 413.45 371.266 413.994 371.266C414.725 371.266 415.425 371.556 415.941 372.072C416.457 372.588 416.747 373.288 416.747 374.018Z" fill="white" stroke="#263238" stroke-linecap="round" stroke-linejoin="round"/>
<path d="M467.549 362.884C467.549 363.428 467.388 363.96 467.085 364.413C466.783 364.866 466.353 365.219 465.85 365.427C465.347 365.635 464.793 365.69 464.259 365.584C463.725 365.477 463.235 365.215 462.85 364.83C462.465 364.445 462.203 363.955 462.097 363.421C461.99 362.887 462.045 362.333 462.253 361.83C462.462 361.327 462.814 360.897 463.267 360.595C463.72 360.292 464.252 360.131 464.796 360.131C465.526 360.131 466.227 360.421 466.743 360.937C467.259 361.453 467.549 362.154 467.549 362.884Z" fill="white" stroke="#263238" stroke-linecap="round" stroke-linejoin="round"/>
<path d="M464.92 365.636C464.92 366.181 464.759 366.713 464.456 367.166C464.154 367.618 463.724 367.971 463.221 368.18C462.718 368.388 462.165 368.442 461.631 368.336C461.097 368.23 460.606 367.968 460.221 367.583C459.836 367.198 459.574 366.707 459.468 366.173C459.361 365.639 459.416 365.086 459.624 364.583C459.833 364.08 460.186 363.65 460.638 363.348C461.091 363.045 461.623 362.884 462.168 362.884C462.898 362.884 463.598 363.174 464.114 363.69C464.63 364.206 464.92 364.906 464.92 365.636Z" fill="white" stroke="#263238" stroke-linecap="round" stroke-linejoin="round"/>
<path d="M459.167 371.472C460.703 371.472 461.947 370.228 461.947 368.692C461.947 367.156 460.703 365.912 459.167 365.912C457.632 365.912 456.387 367.156 456.387 368.692C456.387 370.228 457.632 371.472 459.167 371.472Z" fill="white" stroke="#263238" stroke-linecap="round" stroke-linejoin="round"/>
<path d="M458.644 371.692C458.644 372.237 458.483 372.769 458.18 373.222C457.878 373.674 457.448 374.027 456.945 374.236C456.442 374.444 455.888 374.499 455.354 374.392C454.82 374.286 454.33 374.024 453.945 373.639C453.56 373.254 453.298 372.763 453.191 372.23C453.085 371.696 453.14 371.142 453.348 370.639C453.556 370.136 453.909 369.706 454.362 369.404C454.815 369.101 455.347 368.94 455.891 368.94C456.621 368.94 457.322 369.23 457.838 369.746C458.354 370.262 458.644 370.962 458.644 371.692Z" fill="white" stroke="#263238" stroke-linecap="round" stroke-linejoin="round"/>
<path d="M455.162 374.542C455.162 375.086 455 375.618 454.698 376.071C454.395 376.524 453.965 376.876 453.462 377.085C452.959 377.293 452.406 377.348 451.872 377.241C451.338 377.135 450.847 376.873 450.463 376.488C450.078 376.103 449.815 375.613 449.709 375.079C449.603 374.545 449.657 373.991 449.866 373.488C450.074 372.985 450.427 372.555 450.88 372.253C451.332 371.95 451.865 371.789 452.409 371.789C453.139 371.789 453.839 372.079 454.355 372.595C454.872 373.111 455.162 373.811 455.162 374.542Z" fill="white" stroke="#263238" stroke-linecap="round" stroke-linejoin="round"/>
<path d="M448.28 380.639C449.815 380.639 451.06 379.394 451.06 377.859C451.06 376.323 449.815 375.078 448.28 375.078C446.744 375.078 445.5 376.323 445.5 377.859C445.5 379.394 446.744 380.639 448.28 380.639Z" fill="white" stroke="#263238" stroke-linecap="round" stroke-linejoin="round"/>
<path d="M447.743 380.446C447.743 380.991 447.582 381.523 447.279 381.976C446.977 382.428 446.547 382.781 446.044 382.99C445.541 383.198 444.987 383.252 444.453 383.146C443.919 383.04 443.429 382.778 443.044 382.393C442.659 382.008 442.397 381.517 442.291 380.983C442.184 380.449 442.239 379.896 442.447 379.393C442.656 378.89 443.008 378.46 443.461 378.157C443.914 377.855 444.446 377.694 444.99 377.694C445.72 377.694 446.421 377.984 446.937 378.5C447.453 379.016 447.743 379.716 447.743 380.446Z" fill="white" stroke="#263238" stroke-linecap="round" stroke-linejoin="round"/>
<path d="M443.793 384.176C443.793 384.721 443.631 385.253 443.329 385.706C443.027 386.158 442.597 386.511 442.094 386.719C441.591 386.928 441.037 386.982 440.503 386.876C439.969 386.77 439.479 386.508 439.094 386.123C438.709 385.738 438.447 385.247 438.34 384.713C438.234 384.179 438.289 383.626 438.497 383.123C438.705 382.62 439.058 382.19 439.511 381.887C439.964 381.585 440.496 381.423 441.04 381.423C441.77 381.423 442.47 381.713 442.987 382.23C443.503 382.746 443.793 383.446 443.793 384.176Z" fill="white" stroke="#263238" stroke-linecap="round" stroke-linejoin="round"/>
<path d="M439.746 386.544C439.746 387.088 439.585 387.62 439.283 388.073C438.98 388.526 438.55 388.878 438.047 389.087C437.544 389.295 436.991 389.35 436.457 389.243C435.923 389.137 435.432 388.875 435.047 388.49C434.662 388.105 434.4 387.615 434.294 387.081C434.188 386.547 434.242 385.993 434.45 385.49C434.659 384.987 435.012 384.557 435.464 384.255C435.917 383.952 436.449 383.791 436.994 383.791C437.724 383.791 438.424 384.081 438.94 384.597C439.456 385.113 439.746 385.813 439.746 386.544Z" fill="white" stroke="#263238" stroke-linecap="round" stroke-linejoin="round"/>
<path d="M435.328 389.035C435.328 389.579 435.167 390.112 434.864 390.564C434.562 391.017 434.132 391.37 433.629 391.578C433.126 391.786 432.572 391.841 432.038 391.735C431.505 391.628 431.014 391.366 430.629 390.981C430.244 390.596 429.982 390.106 429.876 389.572C429.769 389.038 429.824 388.484 430.032 387.981C430.241 387.478 430.593 387.049 431.046 386.746C431.499 386.444 432.031 386.282 432.576 386.282C433.306 386.282 434.006 386.572 434.522 387.088C435.038 387.605 435.328 388.305 435.328 389.035Z" fill="white" stroke="#263238" stroke-linecap="round" stroke-linejoin="round"/>
<path d="M416.321 379.4C416.321 379.945 416.159 380.477 415.857 380.93C415.554 381.382 415.124 381.735 414.621 381.943C414.118 382.152 413.565 382.206 413.031 382.1C412.497 381.994 412.006 381.732 411.621 381.347C411.236 380.962 410.974 380.471 410.868 379.937C410.762 379.403 410.816 378.85 411.025 378.347C411.233 377.844 411.586 377.414 412.038 377.111C412.491 376.809 413.023 376.647 413.568 376.647C414.298 376.647 414.998 376.937 415.514 377.454C416.031 377.97 416.321 378.67 416.321 379.4Z" fill="white" stroke="#263238" stroke-linecap="round" stroke-linejoin="round"/>
<path d="M414.008 386.791C415.544 386.791 416.789 385.547 416.789 384.011C416.789 382.476 415.544 381.231 414.008 381.231C412.473 381.231 411.228 382.476 411.228 384.011C411.228 385.547 412.473 386.791 414.008 386.791Z" fill="white" stroke="#263238" stroke-linecap="round" stroke-linejoin="round"/>
<path d="M417.821 388.415C417.821 388.96 417.659 389.492 417.357 389.945C417.054 390.397 416.624 390.75 416.121 390.958C415.618 391.167 415.065 391.221 414.531 391.115C413.997 391.009 413.507 390.747 413.122 390.362C412.737 389.977 412.474 389.486 412.368 388.952C412.262 388.418 412.316 387.865 412.525 387.362C412.733 386.859 413.086 386.429 413.539 386.126C413.991 385.824 414.524 385.662 415.068 385.662C415.798 385.662 416.498 385.952 417.015 386.469C417.531 386.985 417.821 387.685 417.821 388.415Z" fill="white" stroke="#263238" stroke-linecap="round" stroke-linejoin="round"/>
<path d="M418.592 394.059C420.127 394.059 421.372 392.814 421.372 391.278C421.372 389.743 420.127 388.498 418.592 388.498C417.056 388.498 415.811 389.743 415.811 391.278C415.811 392.814 417.056 394.059 418.592 394.059Z" fill="white" stroke="#263238" stroke-linecap="round" stroke-linejoin="round"/>
<path d="M430.69 390.81C430.69 391.355 430.529 391.887 430.226 392.339C429.924 392.792 429.494 393.145 428.991 393.353C428.488 393.562 427.934 393.616 427.4 393.51C426.866 393.404 426.376 393.142 425.991 392.757C425.606 392.372 425.344 391.881 425.237 391.347C425.131 390.813 425.186 390.26 425.394 389.757C425.602 389.254 425.955 388.824 426.408 388.521C426.861 388.219 427.393 388.057 427.937 388.057C428.667 388.057 429.367 388.347 429.884 388.864C430.4 389.38 430.69 390.08 430.69 390.81Z" fill="white" stroke="#263238" stroke-linecap="round" stroke-linejoin="round"/>
<path d="M426.382 392.228C426.382 392.772 426.22 393.305 425.918 393.757C425.615 394.21 425.186 394.563 424.683 394.771C424.18 394.98 423.626 395.034 423.092 394.928C422.558 394.822 422.068 394.559 421.683 394.174C421.298 393.789 421.035 393.299 420.929 392.765C420.823 392.231 420.878 391.678 421.086 391.175C421.294 390.672 421.647 390.242 422.1 389.939C422.552 389.637 423.085 389.475 423.629 389.475C424.359 389.475 425.059 389.765 425.576 390.281C426.092 390.798 426.382 391.498 426.382 392.228Z" fill="white" stroke="#263238" stroke-linecap="round" stroke-linejoin="round"/>
<path d="M467.549 362.884C467.549 362.884 454.887 404.808 447.468 424.008C440.049 443.209 420.422 485.518 420.422 485.518C420.422 485.518 402.103 460.221 399.047 429.239C395.992 398.256 408.751 369.779 408.751 369.779C408.751 369.779 375.084 381.355 366.799 384.41C358.513 387.466 349.085 391.856 345.603 400.142C342.12 408.428 303.183 518.359 301.435 522.722C299.687 527.085 296.205 527.525 301.008 534.944C305.812 542.363 328.921 542.789 333.284 538.867C337.647 534.944 362.835 497.768 362.835 497.768L372.001 515.661L375.924 569.752L375.057 578.919H492.448L491.071 547.07C491.071 547.07 534.73 437.153 538.226 418.393C541.722 399.633 536.478 389.599 528.591 383.983C520.705 378.368 467.549 362.884 467.549 362.884Z" fill="#FFB5A7" stroke="#263238" stroke-linecap="round" stroke-linejoin="round"/>
<path d="M393.129 396.054C392.145 395.783 391.095 395.898 390.194 396.377C389.293 396.856 388.609 397.661 388.284 398.628C387.004 402.179 386.027 405.414 386.027 405.414C386.027 405.414 381.512 411.883 380.521 415.048C379.53 418.214 376.97 444.117 376.323 446.388C375.676 448.659 373.419 460.276 373.419 460.276L369.868 465.781L379.227 481.926C379.227 481.926 384.402 481.61 389.247 474.177C394.092 466.745 394.092 467.392 395.056 458.032C396.019 448.673 396.996 397.623 396.996 397.623C396.996 397.623 395.069 395.407 393.129 396.054Z" fill="white" stroke="#263238" stroke-linecap="round" stroke-linejoin="round"/>
<path d="M412.191 477.123C412.191 477.123 411.228 470.337 412.838 468.08C414.449 465.823 417.683 465.492 418.344 458.074C419.004 450.655 416.733 443.525 418.027 435.46C419.321 427.394 422.872 428.991 422.542 425.44C422.211 421.889 417.036 421.242 415.44 423.829C413.843 426.417 412.205 429.638 412.205 429.638C412.205 429.638 410.911 408.992 410.265 402.179C409.618 395.366 405.103 393.467 405.103 393.467C405.103 393.467 403.162 387.961 400.575 389.269C397.987 390.576 397.671 392.173 397.671 392.173C395.868 393.079 394.313 394.411 393.142 396.054C392.339 397.879 392.008 399.876 392.179 401.862C390.267 403.634 388.825 405.852 387.981 408.318C387.018 411.882 383.136 434.813 382.806 443.856C382.476 452.898 382.806 468.727 384.43 471.631C386.054 474.535 390.238 480.674 390.238 480.674L392.826 488.436C392.826 488.436 405.089 478.416 412.191 477.123Z" fill="white" stroke="#263238" stroke-linecap="round" stroke-linejoin="round"/>
<path d="M392.165 401.863C392.165 401.863 394.106 402.826 393.776 407.368C393.445 411.91 391.202 432.569 391.202 432.569" fill="white"/>
<path d="M392.165 401.863C392.165 401.863 394.106 402.826 393.776 407.368C393.445 411.91 391.202 432.569 391.202 432.569" stroke="#263238" stroke-linecap="round" stroke-linejoin="round"/>
<path d="M397.657 392.173C397.657 392.173 400.231 390.659 399.584 396.302C398.937 401.945 398.951 430.01 398.951 430.01" fill="white"/>
<path d="M397.657 392.173C397.657 392.173 400.231 390.659 399.584 396.302C398.937 401.945 398.951 430.01 398.951 430.01" stroke="#263238" stroke-linecap="round" stroke-linejoin="round"/>
<path d="M405.089 393.467C405.089 393.467 406.383 419.618 405.736 427.064L405.089 393.467Z" fill="white"/>
<path d="M405.089 393.467C405.089 393.467 406.383 419.618 405.736 427.064" stroke="#263238" stroke-linecap="round" stroke-linejoin="round"/>
<path d="M412.191 429.638C412.191 429.638 413.761 439.135 414.394 441.392L412.191 429.638Z" fill="white"/>
<path d="M412.191 429.638C412.191 429.638 413.761 439.135 414.394 441.392" stroke="#263238" stroke-linecap="round" stroke-linejoin="round"/>
<path d="M370.708 461.68L384.664 480.55C384.664 480.55 354.632 526.273 349.938 533.733C345.245 541.193 330.049 558.645 321.488 560.847C312.927 563.05 308.234 560.847 303.596 554.227C298.957 547.607 291.993 536.334 295.035 528.806C298.076 521.277 320.993 499.75 328.178 495.883C335.362 492.015 370.708 461.68 370.708 461.68Z" fill="#FFB5A7" stroke="#263238" stroke-linecap="round" stroke-linejoin="round"/>
<path d="M519.094 382.896C519.094 382.896 525.976 383.447 528.646 383.86C531.316 384.272 536.23 390.907 538.157 395.049C540.084 399.192 540.098 414.938 539.258 423.774C538.419 432.611 520.237 498.69 516.369 519.129C512.501 539.569 499.219 570.055 496.742 573.62C494.264 577.185 489.557 580.502 484.864 580.24C480.17 579.979 451.046 559.691 440.269 549.203C429.492 538.715 388.325 484.514 388.325 484.514C388.325 484.514 393.583 476.255 398.276 473.503C402.97 470.75 412.921 469.085 412.921 469.085C412.921 469.085 431.144 484.83 445.238 496.392C454.023 503.582 463.366 510.062 473.178 515.771C473.178 515.771 479.262 480.564 480.06 476.421C480.859 472.278 487.424 436.657 487.424 436.657" fill="#FFB5A7"/>
<path d="M519.094 382.896C519.094 382.896 525.976 383.447 528.646 383.86C531.316 384.272 536.23 390.907 538.157 395.049C540.084 399.192 540.098 414.938 539.258 423.774C538.419 432.611 520.237 498.69 516.369 519.129C512.501 539.569 499.219 570.055 496.742 573.62C494.264 577.185 489.557 580.502 484.864 580.24C480.17 579.979 451.046 559.691 440.269 549.203C429.492 538.715 388.325 484.514 388.325 484.514C388.325 484.514 393.583 476.255 398.276 473.503C402.97 470.75 412.921 469.085 412.921 469.085C412.921 469.085 431.144 484.83 445.238 496.392C454.023 503.582 463.366 510.062 473.178 515.771C473.178 515.771 479.262 480.564 480.06 476.421C480.859 472.278 487.424 436.657 487.424 436.657" stroke="#263238" stroke-linecap="round" stroke-linejoin="round"/>
<path d="M473.179 515.771C473.179 515.771 483.13 519.639 485.566 534.283" stroke="#263238" stroke-linecap="round" stroke-linejoin="round"/>
<path d="M473.688 519.363C473.688 519.363 479.496 523.493 478.12 532.618" stroke="#263238" stroke-linecap="round" stroke-linejoin="round"/>
<path d="M356.008 472.677C354.596 466.049 355.073 459.159 357.384 452.788C361.252 442.287 369.772 412.998 369.772 412.998" stroke="#263238" stroke-linecap="round" stroke-linejoin="round"/>
<g opacity="0.3">
<path d="M577.439 228.921C600.837 243.883 588.697 256.008 573.736 232.624C558.789 256.022 546.663 243.883 570.048 228.921C546.649 213.974 558.789 201.848 573.736 225.233C588.697 201.848 600.809 213.974 577.439 228.921Z" stroke="black" stroke-miterlimit="10"/>
<path d="M576.406 226.32C603.507 220.36 603.507 237.496 576.406 231.537C582.366 258.651 565.23 258.651 571.19 231.537C544.075 237.496 544.075 220.36 571.19 226.32C565.175 199.205 582.311 199.205 576.406 226.32Z" stroke="black" stroke-miterlimit="10"/>
</g>
<g opacity="0.3">
<path d="M392.551 157.804C408.035 167.7 399.997 175.697 390.101 160.254C380.205 175.738 372.208 167.7 387.651 157.804C372.166 147.908 380.205 139.911 390.101 155.354C399.997 139.911 408.035 147.922 392.551 157.804Z" stroke="black" stroke-miterlimit="10"/>
<path d="M390.101 160.268C391.454 160.268 392.551 159.171 392.551 157.818C392.551 156.465 391.454 155.368 390.101 155.368C388.748 155.368 387.651 156.465 387.651 157.818C387.651 159.171 388.748 160.268 390.101 160.268Z" stroke="black" stroke-miterlimit="10"/>
</g>
<g opacity="0.3">
<path d="M303.609 428.44C304.962 428.44 306.059 427.343 306.059 425.99C306.059 424.637 304.962 423.54 303.609 423.54C302.256 423.54 301.159 424.637 301.159 425.99C301.159 427.343 302.256 428.44 303.609 428.44Z" stroke="black" stroke-miterlimit="10"/>
<path d="M305.343 424.27C323.236 420.32 323.236 431.675 305.343 427.725C309.294 445.617 297.939 445.617 301.889 427.725C283.927 431.675 283.927 420.32 301.889 424.27C297.939 406.322 309.294 406.322 305.343 424.27Z" stroke="black" stroke-miterlimit="10"/>
</g>
<g opacity="0.3">
<path d="M533.064 335.673C534.418 335.673 535.514 334.576 535.514 333.223C535.514 331.87 534.418 330.773 533.064 330.773C531.711 330.773 530.615 331.87 530.615 333.223C530.615 334.576 531.711 335.673 533.064 335.673Z" stroke="black" stroke-miterlimit="10"/>
<path d="M533.064 335.673C534.418 335.673 535.514 334.576 535.514 333.223C535.514 331.87 534.418 330.773 533.064 330.773C531.711 330.773 530.615 331.87 530.615 333.223C530.615 334.576 531.711 335.673 533.064 335.673Z" stroke="black" stroke-miterlimit="10"/>
</g>
<g opacity="0.3">
<path d="M302.673 233.229C327.544 249.14 314.648 262.023 298.737 237.152C282.826 262.023 269.93 249.14 294.814 233.229C269.93 217.319 282.826 204.422 298.737 229.293C314.648 204.422 327.544 217.319 302.673 233.229Z" stroke="black" stroke-miterlimit="10"/>
<path d="M298.737 237.152C300.903 237.152 302.66 235.396 302.66 233.23C302.66 231.063 300.903 229.307 298.737 229.307C296.57 229.307 294.814 231.063 294.814 233.23C294.814 235.396 296.57 237.152 298.737 237.152Z" stroke="black" stroke-miterlimit="10"/>
</g>
<g opacity="0.3">
<path d="M587.954 144.669C597.658 109.291 576.846 72.7445 541.468 63.0397C506.091 53.3348 469.544 74.1469 459.839 109.525C450.134 144.903 470.946 181.449 506.324 191.154C541.702 200.859 578.249 180.047 587.954 144.669Z" stroke="black" stroke-linecap="round" stroke-linejoin="round"/>
<path d="M545.709 181.341C575.677 169.294 590.205 135.234 578.158 105.266C566.111 75.298 532.051 60.7702 502.083 72.8173C472.115 84.8643 457.587 118.924 469.634 148.892C481.681 178.86 515.741 193.388 545.709 181.341Z" stroke="black" stroke-linecap="round" stroke-linejoin="round"/>
<path d="M527.972 127.097C527.972 127.914 527.73 128.712 527.276 129.391C526.822 130.07 526.177 130.599 525.423 130.912C524.668 131.224 523.838 131.306 523.037 131.147C522.236 130.988 521.5 130.594 520.923 130.017C520.346 129.439 519.952 128.704 519.793 127.903C519.634 127.102 519.715 126.271 520.028 125.517C520.34 124.762 520.87 124.118 521.549 123.664C522.228 123.21 523.026 122.968 523.843 122.968C524.938 122.968 525.988 123.403 526.762 124.177C527.537 124.952 527.972 126.002 527.972 127.097Z" stroke="black" stroke-linecap="round" stroke-linejoin="round"/>
<path d="M528.233 125.886L542.383 121.468" stroke="black" stroke-linecap="round" stroke-linejoin="round"/>
<path d="M523.898 131.171V173.646" stroke="black" stroke-linecap="round" stroke-linejoin="round"/>
</g>
<path d="M310.877 606.034L395.083 584.824C396.391 584.507 396.886 580.502 395.551 580.502L271.333 582.594L310.877 606.034Z" fill="white" stroke="#263238" stroke-linecap="round" stroke-linejoin="round"/>
<path d="M310.877 603.9L395.083 582.69C395.357 582.629 395.598 582.468 395.76 582.239C395.921 582.01 395.992 581.729 395.957 581.451C395.923 581.172 395.786 580.917 395.574 580.734C395.361 580.551 395.088 580.453 394.808 580.461H271.333L310.877 603.9Z" fill="white" stroke="#263238" stroke-linecap="round" stroke-linejoin="round"/>
<path d="M302.384 588.003H344.887L297.54 597.693L302.384 588.003Z" fill="#949494" stroke="#263238" stroke-linecap="round" stroke-linejoin="round"/>
<path d="M310.877 606.034H119.561L97.539 492.442C97.3524 491.476 97.3816 490.481 97.6244 489.527C97.8673 488.574 98.3178 487.686 98.9438 486.927C99.5699 486.169 100.356 485.558 101.246 485.138C102.135 484.718 103.107 484.5 104.091 484.5H281.863C283.411 484.501 284.911 485.042 286.104 486.029C287.297 487.016 288.109 488.388 288.401 489.909L310.877 606.034Z" fill="white" stroke="#263238" stroke-linecap="round" stroke-linejoin="round"/>
<path d="M307.876 606.034H116.698L94.6761 492.442C94.4897 491.477 94.5186 490.483 94.7607 489.531C95.0027 488.578 95.4521 487.691 96.0766 486.933C96.701 486.174 97.4853 485.563 98.3733 485.142C99.2614 484.722 100.231 484.502 101.214 484.5H278.821C280.371 484.5 281.873 485.041 283.068 486.028C284.264 487.015 285.078 488.387 285.373 489.909L307.876 606.034Z" fill="#C2C2C2" stroke="#263238" stroke-linecap="round" stroke-linejoin="round"/>
<path d="M193.968 560.49C201.676 560.49 207.924 554.241 207.924 546.533C207.924 538.825 201.676 532.577 193.968 532.577C186.26 532.577 180.011 538.825 180.011 546.533C180.011 554.241 186.26 560.49 193.968 560.49Z" fill="#999999"/>
<path d="M580.426 545.804C580.426 545.804 587.817 541.908 591.437 544.702C595.056 547.497 597.616 554.998 597.616 561.783C597.616 568.569 594.864 575.354 590.033 578.561C585.202 581.768 576.448 579.36 576.448 579.36L576.847 572.56C576.847 572.56 583.646 575.313 587.638 570.165C591.629 565.018 589.234 555.025 586.839 552.603C584.445 550.18 578.856 555.796 578.856 555.796L580.426 545.804Z" fill="white" stroke="#263238" stroke-linecap="round" stroke-linejoin="round"/>
<path d="M583.908 534.283H532.06L537.249 598.367H578.733L583.908 534.283Z" fill="white" stroke="#263238" stroke-linecap="round" stroke-linejoin="round"/>
<path d="M544.599 489.386C544.599 499.42 539.093 499.42 539.093 509.454C539.093 519.487 544.599 519.501 544.599 529.535" stroke="#263238" stroke-linecap="round" stroke-linejoin="round"/>
<path d="M555.224 501.292C553.984 503.829 553.379 506.63 553.462 509.454C553.462 519.501 558.968 519.501 558.968 529.535" stroke="#263238" stroke-linecap="round" stroke-linejoin="round"/>
<path d="M558.968 489.386C559.034 491.802 558.603 494.205 557.702 496.447" stroke="#263238" stroke-linecap="round" stroke-linejoin="round"/>
<path d="M569.167 516.68C570.805 520.534 573.296 522.708 573.296 529.535" stroke="#263238" stroke-linecap="round" stroke-linejoin="round"/>
<path d="M573.351 489.386C573.351 499.42 567.845 499.42 567.845 509.454" stroke="#263238" stroke-linecap="round" stroke-linejoin="round"/>
</svg>
