<svg width="75" height="75" viewBox="0 0 75 75" fill="none" xmlns="http://www.w3.org/2000/svg">
<circle cx="37.5" cy="37.5" r="37.5" fill="#7DBCC2"/>
<path d="M60.6842 26.4737C59.7895 27.4737 58.9474 28.4737 58.1579 29.4737C57.7895 29.8947 57.4737 30.3158 57.1053 30.7895C57.7368 32.7368 58.1053 34.8421 58.1053 37C58.0526 48.0526 49.0526 57.0526 38 57.0526C26.9474 57.0526 17.9474 48.0526 17.9474 37C17.9474 25.9474 26.9474 16.9474 38 16.9474C41.5263 16.9474 44.8947 17.8947 47.7895 19.4737C48.7895 18.4737 49.7895 17.5263 50.8421 16.5789L51.5263 16C47.6316 13.4737 43 12 38 12C24.2105 12 13 23.2105 13 37C13 50.7895 24.2105 62 38 62C51.7895 62 63 50.7895 63 37C63 33.2632 62.1579 29.6842 60.6842 26.4737Z" fill="white"/>
<path d="M45.0526 29.5789C43.1578 31.8947 41.3684 34.2631 39.6842 36.6842C38.8421 37.8947 37.9999 39.1579 37.2105 40.421L30.4736 32.1052C29.6842 31.1579 28.3157 30.9473 27.2631 31.6316C26.1578 32.3684 25.8947 33.8421 26.6315 34.9473L35.1052 47.5263C35.3157 47.8421 35.6315 48.1579 35.9999 48.3684C36.4736 48.6842 36.9999 48.8421 37.5263 48.8421C38.5263 48.8421 39.6315 48.3158 40.1052 47.421C40.5789 46.5789 42.9473 42.2105 44.5263 39.8421C46.0526 37.4737 47.6315 35.1579 49.3684 32.8947C51.0526 30.6316 52.8421 28.421 54.7368 26.3158C56.5789 24.2105 58.5789 22.0526 60.5789 20.2105L60.6315 20.1579C61.5789 19.2631 61.6315 17.7894 60.7894 16.8421C59.8947 15.8421 58.421 15.7368 57.421 16.6316C55.1052 18.6842 53.0526 20.7368 50.9999 22.8947C48.8947 25.0526 46.8947 27.2631 45.0526 29.5789Z" fill="white"/>
</svg>
