<svg width="75" height="75" viewBox="0 0 75 75" fill="none" xmlns="http://www.w3.org/2000/svg">
<circle cx="37.5" cy="37.5" r="37.5" fill="#7DBCC2"/>
<path d="M61.7595 34.7358C61.3844 31.7987 60.4812 28.9548 59.094 26.343C56.2928 21.0931 51.7492 16.9982 46.2549 14.7718C45.5606 14.5292 44.8839 14.2391 44.1778 14.0379L42.0478 13.4815L39.8707 13.1501C39.1469 13.0495 38.4055 13.0554 37.6759 13.008C34.738 12.9339 31.8095 13.3725 29.0204 14.3043C23.4003 16.2045 18.6388 20.06 15.593 25.177C14.0787 27.7102 13.0173 30.4907 12.4567 33.3923L12.1272 35.5822L12.0154 37.7958C11.9949 38.1645 11.9949 38.534 12.0154 38.9026C12.0154 39.2696 12.0154 39.6365 12.0625 40.0035C12.1449 40.7374 12.1861 41.4773 12.3332 42.1994C13.2887 48.0877 16.299 53.4408 20.8239 57.2981C21.5862 57.9032 22.3861 58.4588 23.2187 58.9613C24.0344 59.5183 24.8833 60.0243 25.7606 60.4765C27.4988 61.3612 29.3387 62.0271 31.2387 62.4593C33.1314 62.8765 35.0687 63.0534 37.0051 62.9861C35.0835 62.9131 33.1756 62.6293 31.3152 62.1397C31.0151 62.0568 30.7268 61.9621 30.415 61.8733C32.575 62.3671 34.7949 62.5426 37.0051 62.3942C35.4518 62.2961 33.9111 62.0504 32.4038 61.6603C32.8274 61.7135 33.2452 61.7609 33.6689 61.7964C34.5838 61.8546 35.5015 61.8566 36.4167 61.8023C34.6011 61.6881 32.7993 61.4108 31.0328 60.9737C29.844 60.6707 28.6764 60.2891 27.5376 59.8314C25.5041 58.8119 23.6289 57.4999 21.9713 55.9368C17.7541 52.3629 14.947 47.3895 14.0572 41.9153C13.9219 41.2405 13.8866 40.554 13.8101 39.8733C13.7748 39.5359 13.8101 39.1867 13.763 38.8494C13.7424 38.5064 13.7424 38.1625 13.763 37.8195L13.8807 35.7598L14.1867 33.7296C14.7167 31.0313 15.7124 28.4472 17.1287 26.0944C19.9514 21.3399 24.3687 17.7551 29.5853 15.9852C32.179 15.1287 34.9 14.7283 37.6288 14.8014C38.3114 14.8488 38.9939 14.8369 39.6706 14.9316L41.7124 15.2217L43.6894 15.7366C44.3426 15.926 44.9722 16.1983 45.6194 16.4173C50.7193 18.493 54.9352 22.3002 57.5347 27.1776C58.825 29.6026 59.6645 32.2443 60.0119 34.9726C60.1208 35.6499 60.1798 36.3344 60.1884 37.0205L60.2414 38.0444C60.2414 38.3877 60.2414 38.731 60.2414 39.0743C60.2374 39.4184 60.2158 39.7622 60.1766 40.1041C60.1766 40.4415 60.1296 40.7848 60.0707 41.1222C59.9648 41.8028 59.853 42.4776 59.7236 43.1523C59.5048 44.3814 59.188 45.5907 58.7762 46.7687C58.5821 47.2126 58.3761 47.6446 58.1584 48.0767C57.3344 49.7204 56.3488 51.2769 55.2164 52.7229C54.0633 54.1749 52.779 55.5163 51.3799 56.7299C52.9302 55.6805 54.3368 54.4308 55.5635 53.0129C55.6871 52.8709 55.7989 52.7229 55.9166 52.5809C54.6913 54.3794 53.244 56.0143 51.6094 57.4461C52.6538 56.7405 53.6379 55.9486 54.5515 55.0786C53.6396 56.1319 52.6566 57.1207 51.6094 58.038C53.2192 56.9328 54.6705 55.6104 55.9225 54.1079C57.0364 52.7962 57.9941 51.3581 58.7762 49.8227C59.9434 47.8586 60.8345 45.7412 61.4241 43.5311C62.0551 40.6427 62.1686 37.6643 61.7595 34.7358Z" fill="white"/>
<path d="M49.0557 44.9516C48.5109 44.6692 47.903 44.5327 47.2905 44.555C46.1608 44.6853 45.0801 45.0917 44.1425 45.7388C43.2128 46.2833 42.3125 46.8693 41.4299 47.4789C40.8415 47.8991 40.2531 48.3371 39.6294 48.7869L37.9171 48.0175C37.5347 47.8399 37.1404 47.6683 36.7403 47.4966C37.8846 46.6215 38.966 45.6662 39.9766 44.6379C41.6049 43.076 42.9002 41.1972 43.7836 39.1157C43.9981 38.5443 44.1386 37.9475 44.2013 37.34C44.2639 36.7498 44.2639 36.1546 44.2013 35.5644L44.1425 35.1679L44.0248 34.718L43.9013 34.2741C43.8365 34.1262 43.7659 33.9841 43.6953 33.8421C43.6345 33.6961 43.5617 33.5555 43.4776 33.4218L43.1893 33.0312C42.9924 32.7789 42.7651 32.5523 42.5126 32.3565C41.5291 31.6495 40.3499 31.2707 39.141 31.2733C39.0057 31.2733 38.8704 31.2733 38.735 31.2733C39.0296 31.0445 39.2757 30.7588 39.4588 30.4329C39.7939 29.7953 39.962 29.0823 39.9471 28.3613C39.9506 29.0591 39.7017 29.7343 39.2469 30.2612C39.0466 30.4963 38.7886 30.6747 38.4985 30.7785C38.2085 30.8823 37.8965 30.908 37.5935 30.8531C37.3436 30.7825 37.1123 30.6573 36.916 30.4864C36.7197 30.3156 36.5633 30.1033 36.4579 29.8647C36.2308 29.3884 36.116 28.8658 36.1225 28.3376C36.1157 27.8087 36.2326 27.2856 36.4638 26.8106C36.5713 26.577 36.728 26.3697 36.9231 26.2032C37.1182 26.0366 37.3469 25.9146 37.5935 25.8458C37.8956 25.792 38.2064 25.8182 38.4953 25.922C38.7842 26.0258 39.0412 26.2035 39.2411 26.4377C39.7053 26.9687 39.9569 27.6542 39.9471 28.3613C39.9516 27.6487 39.7776 26.9464 39.4411 26.3193C39.2605 25.9628 38.9993 25.6539 38.6784 25.4175C38.3575 25.1811 37.9859 25.0237 37.5935 24.958C37.1496 24.8978 36.6978 24.9613 36.2872 25.1415C35.8842 25.3275 35.5267 25.6003 35.2399 25.9405C34.6729 26.6174 34.3661 27.4763 34.3749 28.3613C34.3717 29.2453 34.6779 30.1023 35.2399 30.7821C35.5156 31.0971 35.8519 31.3528 36.2284 31.5337C36.0931 31.5337 35.9519 31.587 35.8165 31.6225C35.5459 31.6876 35.2752 31.7409 35.0163 31.8238C34.7396 31.8926 34.4682 31.9817 34.2043 32.0901C33.9186 32.1943 33.6476 32.3356 33.3982 32.5103L33.0216 32.7767C32.9039 32.8714 32.8098 32.9898 32.698 33.0963C31.9102 33.9751 31.4307 35.0895 31.3329 36.2688C31.2187 37.3961 31.3575 38.5348 31.7389 39.601C31.9099 40.1495 32.1887 40.6579 32.5586 41.0961C32.9285 41.5342 33.3821 41.8933 33.8924 42.152C34.1628 42.2691 34.4542 42.3295 34.7486 42.3295C35.043 42.3295 35.3343 42.2691 35.6047 42.152C36.1143 41.8963 36.5273 41.4808 36.7815 40.9682C37.2463 39.9834 37.5218 38.9191 37.5935 37.8313C37.4292 38.8744 37.074 39.8778 36.5461 40.7907C36.3057 41.2344 35.9304 41.589 35.4752 41.8028C35.2473 41.8886 35.0042 41.926 34.7612 41.9128C34.5181 41.8996 34.2805 41.8359 34.0631 41.7259C33.2076 41.2048 32.5919 40.3643 32.3508 39.3879C32.0695 38.4115 32.0092 37.3841 32.1743 36.3812C32.2989 35.4142 32.7302 34.5134 33.404 33.8125C33.4827 33.7295 33.5673 33.6523 33.6571 33.5816L33.9454 33.3982C34.1275 33.2764 34.3255 33.1808 34.5338 33.1141C34.7669 33.0264 35.0071 32.9591 35.2517 32.9128C35.4988 32.8477 35.7518 32.8063 36.0048 32.753C36.999 32.5615 38.0125 32.4919 39.0233 32.5459C39.9588 32.5644 40.8655 32.8746 41.6182 33.4337C41.9454 33.7356 42.2084 34.101 42.3915 34.5078C42.5745 34.9147 42.6738 35.3547 42.6832 35.8012C42.7272 36.2796 42.7272 36.761 42.6832 37.2394C42.6198 37.7063 42.4992 38.1636 42.3243 38.6007C41.484 40.4495 40.2835 42.1099 38.7939 43.4837C37.579 44.6668 36.2747 45.7532 34.8927 46.7331C33.8862 46.3341 32.8589 45.9904 31.8153 45.7033C30.7325 45.382 29.6175 45.1835 28.4908 45.1114C27.8826 45.0819 27.2732 45.1336 26.6785 45.2653C25.9811 45.4153 25.3451 45.7744 24.8545 46.2951C24.5824 46.5975 24.3813 46.9576 24.2661 47.3487C24.1727 47.7241 24.1547 48.1144 24.2131 48.4969C24.3326 49.1972 24.6491 49.8483 25.1251 50.3732C25.578 50.8844 26.1523 51.272 26.7943 51.4997C27.4364 51.7274 28.1253 51.7878 28.7968 51.6753C29.9289 51.441 31.0211 51.0423 32.0389 50.4915C33.0292 49.9795 33.988 49.4083 34.9104 48.781L35.2399 48.5502C35.9224 48.8165 36.6109 49.1006 37.2934 49.3966L38.2702 49.8109C37.6347 50.3554 37.0051 50.8881 36.4167 51.4445C37.0993 50.9157 37.7975 50.4106 38.5114 49.9293C40.0948 50.6569 41.744 51.2297 43.4364 51.6398C44.5688 51.8996 45.7418 51.9258 46.8845 51.7167C48.0721 51.4874 49.1481 50.8618 49.9383 49.9411C50.3349 49.4402 50.5838 48.8373 50.6566 48.2011C50.7294 47.5649 50.6233 46.921 50.3502 46.3425C50.0636 45.7612 49.6135 45.2775 49.0557 44.9516ZM31.2858 48.9171C30.4252 49.3801 29.5042 49.7188 28.5497 49.9233C28.1669 49.992 27.773 49.9611 27.4054 49.8337C27.0378 49.7063 26.7086 49.4866 26.4491 49.1953C26.197 48.928 26.0273 48.5929 25.9607 48.2306C25.9309 48.0922 25.9328 47.9489 25.9665 47.8114C26.0001 47.6739 26.0646 47.546 26.1549 47.4375C26.5256 46.9876 27.5023 46.7746 28.4438 46.8456C29.4381 46.9005 30.4241 47.0592 31.3858 47.3191C31.9742 47.473 32.5626 47.6505 33.151 47.8458C32.5744 48.2187 31.9389 48.5916 31.2858 48.9171ZM49.0204 49.1835C48.3761 49.8594 47.532 50.3078 46.6138 50.4619C45.6471 50.5987 44.6629 50.5404 43.7188 50.2903C42.4388 49.9365 41.1893 49.4793 39.9825 48.9231C40.5356 48.5502 41.124 48.1891 41.6771 47.8518C42.5891 47.3013 43.5129 46.7805 44.4544 46.307C45.3116 45.7847 46.2838 45.4838 47.2846 45.431C47.7385 45.4301 48.1847 45.5484 48.5791 45.7743C48.8554 45.9492 49.0898 46.1834 49.2658 46.46C49.4417 46.7366 49.5548 47.0488 49.597 47.3745C49.6391 47.7001 49.6093 48.0311 49.5096 48.3438C49.41 48.6565 49.2429 48.9432 49.0204 49.1835Z" fill="white"/>
</svg>
