<svg width="75" height="75" viewBox="0 0 75 75" fill="none" xmlns="http://www.w3.org/2000/svg">
<circle cx="37.5" cy="37.5" r="37.5" fill="#7DBCC2"/>
<path d="M62 41.903V42.0731C56.7496 42.0731 51.9031 42.5835 48.1874 43.6043C48.1874 43.6043 48.1874 43.6043 48.1066 43.6043C45.8449 44.1998 44.1486 46.0713 43.5024 48.3682V48.4532C42.5331 52.3664 42.0485 57.4705 42.0485 63H41.9677H41.8869C41.8869 57.4705 41.4023 52.3664 40.433 48.4532C40.433 48.4532 40.433 48.4532 40.433 48.3682C39.8675 45.9863 38.0905 44.1998 35.8288 43.5193C35.8288 43.5193 35.8288 43.5193 35.748 43.5193C32.1131 42.4984 27.2666 41.988 22.0162 41.988V41.903V41.8179C27.2666 41.8179 32.1131 41.3075 35.8288 40.2866H35.9096C38.1713 39.6912 39.8675 37.8197 40.433 35.4377C40.433 35.4377 40.433 35.4377 40.433 35.3527C41.4023 31.4395 41.8869 26.3354 41.8869 20.8059H41.9677H42.0485C42.0485 26.3354 42.5331 31.4395 43.5024 35.3527C43.5024 35.3527 43.5024 35.3527 43.5024 35.4377C44.0679 37.8197 45.8449 39.6061 48.0259 40.2866C48.0259 40.2866 48.0259 40.2866 48.1066 40.2866C51.8223 41.3075 56.6688 41.8179 61.9192 41.8179L62 41.903Z" fill="white"/>
<path d="M32.0323 23.5485V23.6055C29.3794 23.6055 26.943 23.8906 25.1022 24.3468C23.9652 24.6319 23.099 25.6012 22.7741 26.7416C22.7741 26.7416 22.7741 26.7416 22.7741 26.7986C22.2869 28.7373 22.0703 31.3601 22.0703 34.097H22.0162H21.962C21.962 31.3031 21.6913 28.7373 21.2582 26.7986C21.2582 26.7986 21.2582 26.7986 21.2582 26.7416C20.9875 25.5442 20.0671 24.6319 18.9842 24.3468C18.9842 24.3468 18.9842 24.3468 18.9301 24.3468C17.0893 23.8336 14.5988 23.6055 12 23.6055V23.5485V23.4915C14.6529 23.4915 17.0893 23.2064 18.9301 22.7503C18.9301 22.7503 18.9301 22.7503 18.9842 22.7503C20.1212 22.4652 20.9875 21.4958 21.2582 20.2984C21.7454 18.3598 21.962 15.7369 21.962 13H22.0162H22.0703C22.0703 15.7939 22.341 18.3598 22.7741 20.2984C22.7741 20.2984 22.7741 20.2984 22.7741 20.3555C23.0448 21.5529 23.9652 22.4652 25.0481 22.7503C25.0481 22.7503 25.0481 22.7503 25.1022 22.7503C26.943 23.2634 29.3794 23.5485 32.0323 23.5485Z" fill="white"/>
<path d="M24.42 57.0929C23.1136 57.1502 21.8616 57.2649 20.9361 57.4942C20.3918 57.6662 19.9563 58.1248 19.793 58.6981C19.5753 59.6727 19.4119 60.9912 19.4119 62.3671C19.4119 60.9912 19.3031 59.6727 19.0309 58.6981C18.8676 58.1248 18.4321 57.6662 17.8878 57.4942C16.9623 57.2649 15.7103 57.0929 14.4039 57.0929C15.7103 57.0929 16.9623 56.9782 17.8878 56.6916C18.4321 56.5196 18.8676 56.0609 19.0309 55.4877C19.2486 54.5131 19.4119 53.1945 19.4119 51.8186C19.4119 53.1945 19.5208 54.5131 19.793 55.4877C19.9563 56.0609 20.3918 56.5196 20.9361 56.6916C21.8616 56.9209 23.1136 57.0355 24.42 57.0929Z" fill="white"/>
</svg>
