<svg width="75" height="75" viewBox="0 0 75 75" fill="none" xmlns="http://www.w3.org/2000/svg">
<circle cx="37.5" cy="37.5" r="37.5" fill="#7DBCC2"/>
<path d="M37.0268 13.3787C37.0295 13.1936 36.9944 13.0099 36.9236 12.8389C36.8528 12.6679 36.7479 12.5132 36.6151 12.3842C36.4824 12.2552 36.3247 12.1547 36.1517 12.0889C35.9787 12.023 35.7941 11.9932 35.6092 12.0013C30.7889 12.2735 26.1503 13.9345 22.2528 16.784C18.3554 19.6336 15.3657 23.5499 13.6443 28.0606C11.9229 32.5713 11.5434 37.4837 12.5515 42.2053C13.5596 46.9269 15.9123 51.256 19.3257 54.6704C22.7392 58.0848 27.0676 60.4386 31.7889 61.448C36.5103 62.4573 41.4228 62.0791 45.934 60.3589C50.4451 58.6387 54.3623 55.6501 57.2129 51.7534C60.0634 47.8568 61.7257 43.2186 61.9992 38.3983C62.0056 38.2137 61.9745 38.0296 61.9079 37.8572C61.8413 37.6848 61.7406 37.5277 61.6117 37.3953C61.4828 37.2629 61.3284 37.1579 61.1579 37.0867C60.9874 37.0154 60.8042 36.9794 60.6194 36.9808C59.9485 36.9808 59.2799 36.9666 58.6089 36.9808C58.2398 36.9923 57.8887 37.1428 57.6259 37.4022C57.363 37.6615 57.2078 38.0106 57.1913 38.3794C56.923 42.2477 55.5476 45.957 53.2292 49.0652C50.9109 52.1733 47.7474 54.5489 44.1162 55.9087C40.4849 57.2686 36.5391 57.5552 32.7495 56.7344C28.9598 55.9136 25.4863 54.02 22.7431 51.2795C19.9999 48.5391 18.1029 45.0674 17.2784 41.2785C16.4539 37.4897 16.7366 33.5436 18.0928 29.911C19.4491 26.2785 21.8216 23.1126 24.9274 20.7912C28.0332 18.4698 31.7413 17.0908 35.6092 16.8186C35.9871 16.7984 36.3434 16.6358 36.6064 16.3636C36.8694 16.0915 37.0195 15.7298 37.0268 15.3514V13.3787Z" fill="white"/>
</svg>
