<svg width="50" height="50" viewBox="0 0 50 50" fill="none" xmlns="http://www.w3.org/2000/svg">
<path d="M29.4388 26.9387C31.5628 25.5007 32.9398 23.0642 32.9398 20.3125C32.9398 15.9375 29.3778 12.3756 25.0029 12.3756C20.628 12.3756 17.066 15.9376 17.066 20.3125C17.066 23.0615 18.4405 25.5005 20.567 26.9387C15.191 28.3132 11.3801 32.1267 11.3801 36.6262C11.3801 37.1878 11.8171 37.5637 12.3176 37.5637C12.8181 37.5637 13.2551 37.1267 13.2551 36.6262C13.2551 32.0022 18.5041 28.2525 25.0058 28.2525C31.5045 28.2525 36.7564 32.0025 36.7564 36.6262C36.7564 37.1878 37.1934 37.5637 37.6939 37.5637C38.1944 37.5637 38.6314 37.1267 38.6314 36.6262C38.6265 32.1877 34.813 28.3744 29.4395 26.9387H29.4388ZM25.0003 26.3748C21.6873 26.3748 18.9383 23.6868 18.9383 20.3128C18.9383 16.9388 21.6263 14.2508 25.0003 14.2508C28.3743 14.2508 31.0623 16.9388 31.0623 20.3128C31.0623 23.6868 28.3133 26.3748 25.0003 26.3748Z" fill="#3C3C3C"/>
<path d="M25 0C11.1863 0 0 11.1863 0 25C0 38.8137 11.1863 50 25 50C38.8137 50 50 38.8137 50 25C50 11.1863 38.8137 0 25 0ZM25 48.0613C12.2512 48.0613 1.93875 37.685 1.93875 25C1.93875 12.3119 12.2512 1.93875 25 1.93875C37.7488 1.93875 48.0613 12.2512 48.0613 25C48.0613 37.7488 37.7488 48.0613 25 48.0613Z" fill="#3C3C3C"/>
</svg>
