<svg width="93" height="88" viewBox="0 0 93 88" fill="none" xmlns="http://www.w3.org/2000/svg">
<path fill-rule="evenodd" clip-rule="evenodd" d="M84.281 83.1287H8.719C7.56289 83.1274 6.45452 82.6674 5.63712 81.8499C4.81972 81.0323 4.36006 79.9238 4.359 78.7677V33.7237H88.641V78.7677C88.6394 79.9234 88.1795 81.0314 87.3622 81.8486C86.5448 82.6657 85.4368 83.1254 84.281 83.1267V83.1287ZM8.719 9.31069H18.055V12.0357C18.0672 12.6056 18.3022 13.1481 18.7096 13.5469C19.117 13.9457 19.6644 14.169 20.2345 14.169C20.8046 14.169 21.352 13.9457 21.7594 13.5469C22.1668 13.1481 22.4018 12.6056 22.414 12.0357V9.31069H44.32V12.0357C44.32 12.6139 44.5497 13.1684 44.9585 13.5772C45.3673 13.986 45.9218 14.2157 46.5 14.2157C47.0782 14.2157 47.6327 13.986 48.0415 13.5772C48.4503 13.1684 48.68 12.6139 48.68 12.0357V9.31069H70.586V12.0357C70.5982 12.6056 70.8332 13.1481 71.2406 13.5469C71.648 13.9457 72.1954 14.169 72.7655 14.169C73.3356 14.169 73.883 13.9457 74.2904 13.5469C74.6978 13.1481 74.9328 12.6056 74.945 12.0357V9.31069H84.281C85.4368 9.31175 86.5451 9.77131 87.3625 10.5885C88.1799 11.4057 88.6397 12.5138 88.641 13.6697V29.3677H4.359V13.6677C4.36032 12.5118 4.82014 11.4037 5.63754 10.5865C6.45494 9.76931 7.56315 9.30975 8.719 9.30869V9.31069ZM84.281 4.95169H74.945V2.22669C74.9512 1.93654 74.8994 1.64808 74.7927 1.37821C74.686 1.10834 74.5264 0.862499 74.3234 0.655103C74.1204 0.447707 73.878 0.282931 73.6105 0.170439C73.343 0.0579456 73.0557 0 72.7655 0C72.4753 0 72.188 0.0579456 71.9205 0.170439C71.653 0.282931 71.4106 0.447707 71.2076 0.655103C71.0046 0.862499 70.845 1.10834 70.7383 1.37821C70.6316 1.64808 70.5798 1.93654 70.586 2.22669V4.95169H48.68V2.22669C48.68 1.64852 48.4503 1.09402 48.0415 0.685195C47.6327 0.276366 47.0782 0.0466878 46.5 0.0466878C45.9218 0.0466878 45.3673 0.276366 44.9585 0.685195C44.5497 1.09402 44.32 1.64852 44.32 2.22669V4.95169H22.414V2.22669C22.4202 1.93654 22.3684 1.64808 22.2617 1.37821C22.155 1.10834 21.9954 0.862499 21.7924 0.655103C21.5894 0.447707 21.347 0.282931 21.0795 0.170439C20.812 0.0579456 20.5247 0 20.2345 0C19.9443 0 19.657 0.0579456 19.3895 0.170439C19.122 0.282931 18.8796 0.447707 18.6766 0.655103C18.4736 0.862499 18.314 1.10834 18.2073 1.37821C18.1006 1.64808 18.0488 1.93654 18.055 2.22669V4.95169H8.719C6.40783 4.95407 4.19195 5.87303 2.55743 7.50699C0.922898 9.14096 0.00317637 11.3565 0 13.6677V78.7677C0.00238251 81.0794 0.921754 83.2957 2.55637 84.9303C4.19098 86.5649 6.40731 87.4843 8.719 87.4867H84.281C86.5927 87.4843 88.809 86.5649 90.4436 84.9303C92.0782 83.2957 92.9976 81.0794 93 78.7677V13.6677C92.9968 11.3565 92.0771 9.14096 90.4426 7.50699C88.808 5.87303 86.5922 4.95407 84.281 4.95169Z" fill="white"/>
</svg>
