<svg width="90" height="90" viewBox="0 0 90 90" fill="none" xmlns="http://www.w3.org/2000/svg">
<path d="M23.961 39.586H15.6251C5.54312 39.586 0.00012207 34.043 0.00012207 23.961V15.6251C0.00012207 5.54312 5.54312 0.00012207 15.6251 0.00012207H23.961C34.043 0.00012207 39.586 5.54312 39.586 15.6251V23.961C39.586 34.043 34.043 39.586 23.961 39.586ZM15.6251 6.25002C9.04312 6.25002 6.25012 9.04302 6.25012 15.625V23.9609C6.25012 30.5429 9.04312 33.3359 15.6251 33.3359H23.961C30.543 33.3359 33.336 30.5429 33.336 23.9609V15.625C33.336 9.04302 30.543 6.25002 23.961 6.25002H15.6251Z" fill="white"/>
<path d="M73.961 39.586H65.6251C55.5431 39.586 50.0001 34.043 50.0001 23.961V15.6251C50.0001 5.54312 55.5431 0.00012207 65.6251 0.00012207H73.961C84.043 0.00012207 89.586 5.54312 89.586 15.6251V23.961C89.586 34.043 84.043 39.586 73.961 39.586ZM65.6251 6.25002C59.0431 6.25002 56.2501 9.04302 56.2501 15.625V23.9609C56.2501 30.5429 59.0431 33.3359 65.6251 33.3359H73.961C80.543 33.3359 83.336 30.5429 83.336 23.9609V15.625C83.336 9.04302 80.543 6.25002 73.961 6.25002H65.6251Z" fill="white"/>
<path d="M73.961 89.5859H65.6251C55.5431 89.5859 50.0001 84.0429 50.0001 73.9609V65.625C50.0001 55.543 55.5431 50 65.6251 50H73.961C84.043 50 89.586 55.543 89.586 65.625V73.9609C89.586 84.0429 84.043 89.5859 73.961 89.5859ZM65.6251 56.2499C59.0431 56.2499 56.2501 59.0429 56.2501 65.6249V73.9608C56.2501 80.5428 59.0431 83.3358 65.6251 83.3358H73.961C80.543 83.3358 83.336 80.5428 83.336 73.9608V65.6249C83.336 59.0429 80.543 56.2499 73.961 56.2499H65.6251Z" fill="white"/>
<path d="M23.9609 39.5859H15.625C5.543 39.5859 0 34.0429 0 23.9609V15.625C0 5.543 5.543 0 15.625 0H23.9609C34.0429 0 39.5859 5.543 39.5859 15.625V23.9609C39.5859 34.0429 34.0429 39.5859 23.9609 39.5859ZM15.625 6.2499C9.043 6.2499 6.25 9.0429 6.25 15.6249V23.9608C6.25 30.5428 9.043 33.3358 15.625 33.3358H23.9609C30.5429 33.3358 33.3359 30.5428 33.3359 23.9608V15.6249C33.3359 9.0429 30.5429 6.2499 23.9609 6.2499H15.625Z" fill="white"/>
<path d="M73.9609 39.5859H65.625C55.543 39.5859 50 34.0429 50 23.9609V15.625C50 5.543 55.543 0 65.625 0H73.9609C84.0429 0 89.5859 5.543 89.5859 15.625V23.9609C89.5859 34.0429 84.0429 39.5859 73.9609 39.5859ZM65.625 6.2499C59.043 6.2499 56.25 9.0429 56.25 15.6249V23.9608C56.25 30.5428 59.043 33.3358 65.625 33.3358H73.9609C80.5429 33.3358 83.3359 30.5428 83.3359 23.9608V15.6249C83.3359 9.0429 80.5429 6.2499 73.9609 6.2499H65.625Z" fill="white"/>
<path d="M73.9609 89.5859H65.625C55.543 89.5859 50 84.0429 50 73.9609V65.625C50 55.543 55.543 50 65.625 50H73.9609C84.0429 50 89.5859 55.543 89.5859 65.625V73.9609C89.5859 84.0429 84.0429 89.5859 73.9609 89.5859ZM65.625 56.2499C59.043 56.2499 56.25 59.0429 56.25 65.6249V73.9608C56.25 80.5428 59.043 83.3358 65.625 83.3358H73.9609C80.5429 83.3358 83.3359 80.5428 83.3359 73.9608V65.6249C83.3359 59.0429 80.5429 56.2499 73.9609 56.2499H65.625Z" fill="white"/>
<path d="M23.961 89.5859H15.6251C5.54312 89.5859 0.00012207 84.0429 0.00012207 73.9609V65.625C0.00012207 55.543 5.54312 50 15.6251 50H23.961C34.043 50 39.586 55.543 39.586 65.625V73.9609C39.586 84.0429 34.043 89.5859 23.961 89.5859ZM15.6251 56.2499C9.04312 56.2499 6.25012 59.0429 6.25012 65.6249V73.9608C6.25012 80.5428 9.04312 83.3358 15.6251 83.3358H23.961C30.543 83.3358 33.336 80.5428 33.336 73.9608V65.6249C33.336 59.0429 30.543 56.2499 23.961 56.2499H15.6251Z" fill="white"/>
</svg>
