<svg width="98" height="98" viewBox="0 0 98 98" fill="none" xmlns="http://www.w3.org/2000/svg">
<path d="M58.0511 82.0359C59.4495 81.6531 60.7972 81.1922 62.0823 80.657C63.4221 80.1023 64.7229 79.4617 65.9846 78.7351C66.9026 78.2117 68.0315 78.3914 68.7463 79.1023L75.1643 85.5203L85.5163 75.1683L79.0983 68.7503C78.3249 67.9768 78.2194 66.7894 78.7819 65.8987C79.485 64.6643 80.11 63.3909 80.6491 62.0823C81.1921 60.7698 81.6608 59.4026 82.0514 57.9807C82.3287 56.9573 83.2545 56.2854 84.2662 56.2854H93.3365V41.6444H84.2662C83.1803 41.6444 82.2701 40.8905 82.0357 39.8788C81.6529 38.4804 81.188 37.1327 80.6568 35.8436C80.1021 34.5077 79.4615 33.203 78.7349 31.9452C78.2115 31.0272 78.3911 29.8983 79.1021 29.1835L85.5162 22.7655L75.1642 12.4135L68.7462 18.8315C67.9766 19.6049 66.7853 19.7104 65.8985 19.1479C64.6641 18.4448 63.3868 17.8198 62.0821 17.2768C60.7696 16.7338 59.4024 16.2651 57.9805 15.8784C56.9571 15.6011 56.2852 14.6753 56.2852 13.6636V4.5933H41.6442V13.6636C41.6442 14.7456 40.8903 15.6558 39.8786 15.8941C38.4802 16.2769 37.1325 16.7379 35.8474 17.273C34.5115 17.8277 33.2068 18.4683 31.9451 19.1949C31.0271 19.7183 29.8982 19.5386 29.1834 18.8277L22.7654 12.4097L12.4134 22.7617L18.8314 29.1797C19.6048 29.9532 19.7103 31.1406 19.1478 32.0313C18.4447 33.2657 17.8197 34.543 17.2806 35.8477C16.7376 37.1602 16.2689 38.5313 15.8783 39.9532C15.6009 40.9766 14.6752 41.6485 13.6635 41.6485H4.59319V56.2895H13.6635C14.7494 56.2895 15.6596 57.0434 15.894 58.0551C16.2768 59.4535 16.7416 60.8012 17.2729 62.0903C17.8276 63.4262 18.4682 64.7309 19.1948 65.9887C19.7182 66.9067 19.5385 68.0356 18.8276 68.7504L12.4135 75.1684L22.7655 85.5204L29.1835 79.1024C29.9569 78.329 31.1444 78.2235 32.0312 78.786C33.2656 79.4891 34.5429 80.1141 35.8476 80.6571C37.1601 81.2001 38.5273 81.6688 39.9492 82.0555C40.9726 82.3328 41.6445 83.2586 41.6445 84.2703V93.3406H56.2855V84.2703C56.2855 83.1883 57.0394 82.2742 58.0511 82.0398V82.0359ZM48.9652 26.1999C55.2543 26.1999 60.9452 28.7507 65.0672 32.8679C69.1844 36.9851 71.7352 42.6804 71.7352 48.9699C71.7352 55.2594 69.1844 60.9499 65.0672 65.0719C60.9461 69.1891 55.2547 71.7399 48.9652 71.7399C42.6761 71.7399 36.9852 69.1891 32.8632 65.0719C28.746 60.9508 26.1952 55.2594 26.1952 48.9699C26.1952 42.6804 28.746 36.9899 32.8632 32.8679C36.9843 28.7468 42.6757 26.1999 48.9652 26.1999ZM61.8202 36.114C58.5311 32.8249 53.9882 30.7898 48.9652 30.7898C43.9418 30.7898 39.3988 32.825 36.1102 36.114C32.8211 39.4031 30.786 43.946 30.786 48.969C30.786 53.992 32.8212 58.5354 36.1102 61.824C39.3993 65.1131 43.9422 67.1482 48.9652 67.1482C53.9886 67.1482 58.5316 65.113 61.8202 61.824C65.1093 58.5349 67.1444 53.992 67.1444 48.969C67.1444 43.946 65.1092 39.4026 61.8202 36.114ZM63.8397 84.887C62.8631 85.2933 61.8788 85.6565 60.8749 85.9808V95.637C60.8749 96.9026 59.8476 97.9339 58.578 97.9339H39.348C38.0824 97.9339 37.0511 96.9066 37.0511 95.637V85.9808C36.0511 85.6605 35.0667 85.2933 34.0902 84.887C33.1097 84.4808 32.1527 84.0354 31.2191 83.5589L24.3871 90.3909C23.4887 91.2893 22.0394 91.2893 21.141 90.3909L7.543 76.7929C6.64456 75.8945 6.64456 74.4452 7.543 73.5468L14.3711 66.7187C13.8945 65.789 13.4492 64.8281 13.043 63.8476C12.6368 62.871 12.2735 61.8828 11.9492 60.8788H2.2969C1.0313 60.8788 0 59.8515 0 58.5819V39.3519C0 38.0863 1.0273 37.055 2.2969 37.055H11.9531C12.2734 36.055 12.6406 35.0667 13.0469 34.0902C13.4531 33.1097 13.8985 32.1527 14.375 31.2191L7.543 24.3871C6.64456 23.4887 6.64456 22.0394 7.543 21.141L21.141 7.543C22.0394 6.64847 23.4887 6.64847 24.3871 7.543L31.2191 14.375C32.1527 13.8984 33.1097 13.4531 34.0902 13.0469C35.0668 12.6406 36.055 12.2774 37.055 11.9531V2.2969C37.055 1.0313 38.0823 0 39.3519 0H58.5819C59.8475 0 60.8788 1.0273 60.8788 2.2969V11.9531C61.8788 12.2773 62.8671 12.6406 63.8436 13.0469C64.8241 13.4531 65.7811 13.8946 66.7147 14.375L73.5467 7.543C74.4451 6.64847 75.8944 6.64847 76.7928 7.543L90.3908 21.141C91.2892 22.0394 91.2892 23.4887 90.3908 24.3871L83.5627 31.2152C84.0393 32.1488 84.4846 33.1058 84.8908 34.0863C85.2971 35.0629 85.6603 36.0511 85.9846 37.0551H95.6369C96.9025 37.0551 97.9338 38.0824 97.9338 39.352V58.582C97.9338 59.8476 96.9065 60.8789 95.6369 60.8789H85.9807C85.6604 61.8789 85.2932 62.8672 84.8869 63.8437C84.4807 64.8242 84.0353 65.7812 83.5588 66.7148L90.3908 73.5429C91.2892 74.4413 91.2892 75.8906 90.3908 76.789L76.7928 90.387C75.8944 91.2854 74.4451 91.2854 73.5467 90.387L66.7147 83.555C65.7811 84.0316 64.8241 84.4769 63.8436 84.8831L63.8397 84.887Z" fill="black"/>
</svg>
