<svg width="90" height="76" viewBox="0 0 90 76" fill="none" xmlns="http://www.w3.org/2000/svg">
<path fill-rule="evenodd" clip-rule="evenodd" d="M60.4 64.4C54.4 69.5 46.5 72.7 38 72.7C18.8 72.7 3.3 57.2 3.3 38C3.3 18.8 18.8 3.3 38 3.3C46.6 3.3 54.4 6.4 60.4 11.6H65.2C58.3 4.5 48.7 0 38 0C17 0 0 17 0 38C0 59 17 76 38 76C48.7 76 58.4 71.6 65.3 64.4H60.4Z" fill="white"/>
<path fill-rule="evenodd" clip-rule="evenodd" d="M75.2 23.2L72.7 25.5999L83.4001 36.2999H30.3V39.7H83.4001L72.7 50.4L75.2 52.7999L90 38L75.2 23.2Z" fill="white"/>
</svg>
