<svg width="50" height="50" viewBox="0 0 50 50" fill="none" xmlns="http://www.w3.org/2000/svg">
<path d="M24.9665 14.2241C28.6479 14.2241 31.593 11.0632 31.593 7.11207C31.593 3.16092 28.6479 0 24.9665 0C21.2851 0 18.34 3.16092 18.34 7.11207C18.34 11.0632 21.2851 14.2241 24.9665 14.2241ZM24.9665 1.36494C27.9116 1.36494 30.2544 3.87931 30.2544 7.04023C30.2544 10.2011 27.9116 12.7874 24.9665 12.7874C22.0214 12.7874 19.6787 10.273 19.6787 7.11207C19.6787 3.95115 22.0214 1.36494 24.9665 1.36494Z" fill="#3C3C3C"/>
<path d="M47.5234 32.3275L39.759 28.8074C39.3574 28.6637 39.0897 28.3045 38.9558 27.8735L36.2784 18.8936C35.8099 17.1695 34.3373 15.9482 32.664 15.9482H17.1352C15.4618 15.9482 13.9893 17.1695 13.5877 18.8218L10.9772 27.8735C10.8434 28.3045 10.5756 28.6637 10.174 28.8074L2.40964 32.3275C1.00402 32.9022 0 34.4109 0 36.0632C0 36.566 0.0669348 36.9971 0.267738 37.4999C1.00402 39.5833 3.14592 40.589 5.08701 39.7988L5.35475 39.6551C4.01606 40.6609 3.07898 42.385 3.07898 44.3246C3.07898 47.4856 5.48862 49.9999 8.43373 49.9999H18.6747H41.4993C44.4444 49.9999 46.8541 47.4137 46.8541 44.3246C46.8541 42.385 45.9839 40.7327 44.6452 39.7269L44.913 39.7988C46.8541 40.589 48.996 39.5114 49.7323 37.4999C49.8661 37.0689 50 36.566 50 36.0632C49.9331 34.4109 48.929 32.9741 47.5234 32.3275ZM18.0054 40.0861L9.50468 38.793L8.96921 38.6494C8.76841 38.6494 8.63454 38.6494 8.43373 38.6494C8.09906 38.6494 7.83133 38.6494 7.56359 38.7212L13.3199 36.2068C15.5957 35.2011 17.2691 33.1896 18.0723 30.7471V40.0861H18.0054ZM8.43373 48.635C6.2249 48.635 4.41767 46.6953 4.41767 44.3965C4.41767 42.0258 6.2249 40.158 8.43373 40.158H8.50067C8.5676 40.158 8.70147 40.158 8.76841 40.158L20.2811 41.8821L18.1392 42.2413C16.332 42.5287 14.9933 44.181 14.9933 46.1206C14.9933 46.3361 14.9933 46.5517 15.0602 46.7672V46.839C15.1272 47.0545 15.1272 47.1982 15.1941 47.4137C15.1941 47.4137 15.1941 47.4856 15.261 47.4856C15.328 47.7011 15.3949 47.8448 15.4618 47.9884C15.4618 47.9884 15.4618 48.0603 15.5288 48.0603C15.5957 48.204 15.7296 48.4195 15.8635 48.5632H8.43373V48.635ZM45.5154 44.3246C45.5154 46.6953 43.7082 48.5632 41.4993 48.5632H18.6747C17.4029 48.5632 16.332 47.4137 16.332 46.0488C16.332 44.7557 17.1352 43.7499 18.34 43.6063L29.6519 41.8821L40.6292 40.158L41.1647 40.0861C41.2316 40.0861 41.3655 40.0861 41.4324 40.0861H41.4993C43.7082 40.0861 45.5154 42.0258 45.5154 44.3246ZM41.4993 38.6494C41.2985 38.6494 41.1647 38.6494 40.9639 38.6494L31.8608 40.0861V30.6752C32.5971 33.1178 34.3373 35.1292 36.6131 36.2068L42.3695 38.7212C42.1017 38.6494 41.834 38.6494 41.4993 38.6494ZM48.3936 36.9971C47.925 38.2902 46.5194 39.0086 45.3146 38.5057L37.1486 34.8419C35.2075 33.9798 33.7349 32.2557 33.1325 30.1005L31.8608 25.6465C31.7938 25.2873 31.4592 25.0718 31.1245 25.1436C30.7898 25.2155 30.5221 25.5028 30.5221 25.862V40.3017L24.9665 41.1637L19.344 40.3017V25.862C19.344 25.5028 19.0763 25.2155 18.7416 25.1436C18.407 25.0718 18.0723 25.2873 18.0054 25.6465L16.9344 29.6695L16.8005 30.1005C16.1981 32.2557 14.7256 33.9798 12.7845 34.8419L4.61847 38.4338C3.41365 38.9367 2.00803 38.2902 1.53949 36.9252C1.40562 36.6379 1.40562 36.3505 1.40562 35.9913C1.40562 34.9137 2.00803 33.9798 2.94511 33.5488L10.7095 30.0287C11.4458 29.6695 11.9813 29.0229 12.249 28.2327L14.9264 19.181C15.1941 18.1034 16.1312 17.3132 17.2021 17.3132H32.8648C33.9357 17.2413 34.8728 18.0315 35.1406 19.181L37.8179 28.1609C38.0187 28.9511 38.6211 29.6695 39.3574 29.9568L47.0549 33.6925C47.992 34.0517 48.5944 35.0574 48.5944 36.0632C48.5944 36.4223 48.5274 36.7097 48.3936 36.9971Z" fill="#3C3C3C"/>
</svg>
