<svg width="50" height="50" viewBox="0 0 50 50" fill="none" xmlns="http://www.w3.org/2000/svg">
<path d="M39.5093 45.3425C39.5093 45.3425 39.5741 45.2962 39.6019 45.2777C45.8981 40.7314 50 33.3424 50 25C50 11.2129 38.7871 0 25 0C11.2129 0 0 11.2129 0 25C0 33.3424 4.11106 40.7314 10.3981 45.2777C10.4259 45.2962 10.4537 45.324 10.4907 45.3425C12.1295 46.5184 13.9165 47.4906 15.8147 48.2406C15.8425 48.2591 15.8795 48.2684 15.9073 48.2776C18.7313 49.3795 21.7961 49.9998 24.9999 49.9998C28.2038 49.9998 31.2683 49.3887 34.0926 48.2776C34.1296 48.2684 34.1574 48.2591 34.1852 48.2406C36.0833 47.4906 37.8705 46.5091 39.5093 45.3425ZM1.85227 25.0002C1.85227 12.2318 12.232 1.85265 24.9999 1.85265C37.7677 1.85265 48.1474 12.2324 48.1474 25.0002C48.1474 32.1853 44.8512 38.6202 39.6936 42.8702L38.7677 37.4999C38.5084 36.0092 37.4066 34.8148 35.9714 34.4259C39.5639 29.4167 38.2399 24.8059 37.0455 22.4077C36.4158 21.1484 36.101 19.8521 36.101 18.5559C36.101 13.6763 32.9807 9.28723 28.5088 7.87983C27.3329 7.50947 26.1384 7.35207 24.944 7.41688C23.2496 7.50021 21.6015 8.02795 20.046 8.97241C19.1015 8.9539 17.8793 9.12982 16.6571 9.90757C15.7774 10.4724 15.0737 11.2594 14.5552 12.2594C14.1015 13.1575 13.8793 14.1853 13.8793 15.3149V18.5556C13.8793 19.8427 13.5645 21.139 12.9349 22.3982C11.7405 24.7963 10.4164 29.4073 14.0089 34.4164C12.5645 34.8053 11.472 35.9998 11.2126 37.4905L10.2867 42.8608C5.12939 38.6108 1.8329 32.1759 1.8329 24.9908L1.85227 25.0002ZM18.8796 19.1392C19.3241 18.9818 19.7407 18.7596 20.1018 18.4633C20.4537 18.1763 20.7222 17.8615 20.9351 17.5466C21.9537 18.9818 23.6388 20.741 26.2314 21.741C27.7128 22.3058 29.1202 22.491 30.3146 22.491C30.6017 22.491 30.8609 22.4725 31.1202 22.4539V24.7872C31.1202 28.1668 28.3702 30.9075 25 30.9075C21.6297 30.9075 18.8797 28.1575 18.8797 24.7872V19.1299L18.8796 19.1392ZM22.574 32.3888C23.3426 32.6296 24.1481 32.7684 25 32.7684C25.8519 32.7684 26.6574 32.6296 27.4259 32.3888C27.7407 33.2869 28.3796 34.0277 29.2129 34.4814L26.6018 37.2406C25.7593 38.1294 24.2408 38.1294 23.3982 37.2406L20.7872 34.4814C21.6205 34.0184 22.2593 33.2777 22.574 32.3888ZM30.5923 33.0647C29.8608 32.8795 29.3053 32.3147 29.1293 31.6017C31.4349 30.2036 32.9812 27.6759 32.9812 24.787V21.4167C32.9812 21.4167 32.9719 21.3704 32.9626 21.3426V21.2685C32.9626 21.2315 32.9349 21.2037 32.9256 21.1667C32.9071 21.1019 32.8886 21.0463 32.8608 20.9815C32.833 20.9352 32.8052 20.8889 32.7682 20.8426C32.7311 20.7963 32.6941 20.75 32.6386 20.7037C32.5923 20.6667 32.546 20.6389 32.4997 20.6111C32.4441 20.5834 32.3978 20.5556 32.333 20.5371C32.2774 20.5185 32.2219 20.5093 32.1571 20.5C32.12 20.5 32.083 20.4722 32.0367 20.4722C32.0089 20.4722 31.9812 20.4908 31.9534 20.4908H31.8886C30.6941 20.6852 28.8608 20.75 26.8886 19.9908C23.6479 18.7408 22.0831 16.0649 21.5646 14.9723C21.3794 14.5927 20.972 14.3889 20.5646 14.463C20.1572 14.5371 19.8424 14.8797 19.8054 15.2871C19.7869 15.5371 19.648 16.4167 18.9258 17C18.5276 17.3241 18.0925 17.4444 17.8054 17.4907C17.7684 17.4907 17.7499 17.5185 17.7128 17.5278C17.648 17.5463 17.5739 17.5648 17.5184 17.6018C17.4721 17.6296 17.4351 17.6574 17.3888 17.6852C17.3332 17.7222 17.2869 17.7685 17.2406 17.8148C17.2036 17.8518 17.1758 17.8981 17.148 17.9444L17.0647 18.1111C17.0462 18.1666 17.0369 18.2222 17.0276 18.287C17.0276 18.3241 17.0091 18.3611 17.0091 18.3981V24.7684C17.0091 27.6573 18.5554 30.1758 20.8609 31.5832C20.6758 32.2869 20.1295 32.8609 19.3887 33.0461L15.9629 33.9072C12.3981 29.435 13.5462 25.3147 14.5925 23.2128C15.3517 21.6943 15.7314 20.1202 15.7314 18.5462V15.3055C15.7314 14.4814 15.8981 13.7129 16.2129 13.0833C16.5647 12.3888 17.0555 11.8333 17.6573 11.4537C18.5925 10.8518 19.574 10.7778 20.2314 10.8148C20.4258 10.8241 20.6203 10.7778 20.7869 10.6667C22.148 9.79627 23.5739 9.31485 25.0369 9.24078C26.0091 9.19449 26.9906 9.32411 27.9535 9.6204C31.6572 10.7871 34.2403 14.4444 34.2403 18.537C34.2403 20.1111 34.6199 21.6852 35.3792 23.2037C36.4254 25.3055 37.5736 29.4353 34.0088 33.898L30.5737 33.037L30.5923 33.0647ZM17.1388 46.7683V42.8053C17.1388 42.2961 16.7222 41.8794 16.2129 41.8794C15.7037 41.8794 15.287 42.2961 15.287 42.8053V45.9997C14.1296 45.4627 13.0185 44.8331 11.963 44.1109L13.0463 37.8147C13.1852 37.0183 13.7778 36.3795 14.5555 36.1943L18.8333 35.1202L22.0462 38.5183C22.824 39.3332 23.8703 39.7868 24.9999 39.7868C26.1296 39.7868 27.1758 39.3331 27.9536 38.5183L31.1665 35.1202L35.4535 36.2035C36.2221 36.398 36.8146 37.0276 36.9535 37.8239L38.0368 44.1296C36.9905 44.8425 35.8794 45.4722 34.7127 46.0185V42.8241C34.7127 42.3148 34.2961 41.8982 33.7868 41.8982C33.2776 41.8982 32.8609 42.3148 32.8609 42.8241V46.787C30.4073 47.6759 27.7591 48.1666 24.9997 48.1666C22.2402 48.1666 19.5923 47.6759 17.1384 46.787L17.1388 46.7683Z" fill="#3C3C3C"/>
</svg>
