<svg width="50" height="50" viewBox="0 0 50 50" fill="none" xmlns="http://www.w3.org/2000/svg">
<path d="M39.5093 45.3343C39.5093 45.3343 39.5741 45.288 39.6019 45.2695C45.8981 40.7241 50 33.3364 50 24.9955C50 11.2109 38.7871 0 25 0C11.2129 0 0 11.2109 0 24.9955C0 33.3364 4.11106 40.724 10.3981 45.2695C10.4259 45.288 10.4537 45.3158 10.4907 45.3343C12.1295 46.51 13.9165 47.482 15.8147 48.2411C15.8425 48.2596 15.8795 48.2689 15.9073 48.2781C18.7313 49.3798 21.7961 50 24.9999 50C28.2038 50 31.2683 49.389 34.0926 48.2781C34.1296 48.2689 34.1574 48.2596 34.1852 48.2411C36.0833 47.4913 37.8705 46.5099 39.5093 45.3343ZM1.85227 24.9957C1.85227 12.2296 12.232 1.85231 24.9999 1.85231C37.7677 1.85231 48.1474 12.2302 48.1474 24.9957C48.1474 32.1795 44.8512 38.6132 39.6936 42.8625L38.7677 37.4931C38.4992 35.9749 37.3695 34.7622 35.8881 34.3919L30.5826 33.0588C29.7863 32.8644 29.203 32.2164 29.0733 31.4295C31.1937 30.3742 32.8418 28.5319 33.6381 26.2823C35.5548 26.0879 37.0639 24.4864 37.0639 22.5145C37.0639 20.9408 36.101 19.5892 34.7121 19.0152C34.9436 17.497 34.7121 15.1549 33.6102 13.1275C31.6936 9.56336 28.0455 8.70237 26.9715 8.51728C23.6012 7.95257 20.1105 9.31345 17.7402 12.0721C17.1013 11.9981 16.4532 12.1647 15.9069 12.5535C15.1661 13.0812 14.7495 13.9422 14.7958 14.8586C14.8791 16.5064 15.1661 17.9507 15.4254 18.9597C13.9532 19.4874 12.9069 20.876 12.9069 22.5238C12.9069 24.4956 14.4162 26.0972 16.3328 26.2916C17.1383 28.5412 18.7864 30.3834 20.8975 31.4388C20.7679 32.2257 20.1846 32.8644 19.3882 33.0681L14.1013 34.4012C12.6198 34.7622 11.4809 35.9842 11.2124 37.5024L10.2865 42.8718C5.12915 38.6226 1.83266 32.1888 1.83266 25.005L1.85227 24.9957ZM34.1944 23.209V20.7928C34.8148 21.1261 35.2222 21.7741 35.2222 22.5147C35.2222 23.2553 34.7685 23.9496 34.1203 24.2736C34.1574 23.9219 34.1852 23.5701 34.1852 23.209H34.1944ZM32.8333 19.0339C23.6299 19.3949 20.1668 16.1548 20.1389 16.1271C19.963 15.9512 19.7223 15.8586 19.4815 15.8586C19.3797 15.8586 19.2871 15.8771 19.1852 15.9049C18.3704 16.1734 17.6297 16.9695 17.0649 17.7749C16.889 16.9417 16.7223 15.9049 16.6667 14.7662C16.6482 14.3681 16.8982 14.1459 17.0001 14.0626C17.1112 13.9886 17.3982 13.8219 17.7593 13.9701C18.1482 14.1274 18.5833 14.0071 18.8334 13.6738C20.7871 11.1373 23.787 9.86899 26.6756 10.3504C27.5367 10.4985 30.4719 11.1835 31.9811 14.0071C33.0737 16.0437 32.9997 18.247 32.8237 19.0339L32.8333 19.0339ZM15.8705 24.2736C15.2224 23.9589 14.7779 23.2924 14.7779 22.524C14.7779 21.7556 15.1946 21.1446 15.8057 20.8114V23.2183C15.8057 23.5794 15.8335 23.9311 15.8705 24.2736ZM17.6575 23.209V20.4225C18.0649 19.5801 18.7871 18.4229 19.3983 17.9045C20.7501 18.8951 24.6482 21.0983 32.3427 20.8947V23.209C32.3427 27.2545 29.0464 30.5504 25 30.5504C20.9535 30.5504 17.6575 27.2548 17.6575 23.209ZM22.6575 32.0867C23.4075 32.2811 24.1945 32.4015 25 32.4015C25.8055 32.4015 26.5926 32.2811 27.3426 32.0867C27.6111 33.1051 28.287 33.966 29.2037 34.4751L26.5926 37.2338C25.75 38.1225 24.2315 38.1225 23.389 37.2338L20.7779 34.4751C21.7038 33.966 22.3705 33.105 22.6482 32.0867H22.6575ZM17.139 46.76V42.7978C17.139 42.2887 16.7224 41.8721 16.2131 41.8721C15.7039 41.8721 15.2872 42.2887 15.2872 42.7978V45.9916C14.1298 45.4547 13.0187 44.8252 11.9631 44.1031L13.0465 37.808C13.1853 37.0119 13.7779 36.3731 14.5557 36.188L18.8335 35.1141L22.0464 38.5116C22.8242 39.3263 23.8704 39.7799 25.0001 39.7799C26.1297 39.7799 27.176 39.3263 27.9538 38.5116L31.1667 35.1141L35.4537 36.1972C36.2315 36.3916 36.8148 37.0211 36.9537 37.8173L38.037 44.1218C36.9907 44.8347 35.8796 45.4642 34.7129 46.0104V42.8166C34.7129 42.3074 34.2963 41.8908 33.787 41.8908C33.2778 41.8908 32.8611 42.3074 32.8611 42.8166V46.7788C30.4074 47.6675 27.7593 48.1581 24.9999 48.1581C22.2404 48.1581 19.5925 47.6675 17.1386 46.7788L17.139 46.76Z" fill="#3C3C3C"/>
</svg>
